<svg xmlns="http://www.w3.org/2000/svg" viewBox="0 0 1141 129">
  <path d="M 844 26 L 844 95 L 846 100 L 852 106 L 859 109 L 930 109 L 937 106 L 943 100 L 946 91 L 946 29 L 945 26 L 943 23 L 939 21 L 934 21 L 930 23 L 927 28 L 927 86 L 923 90 L 866 90 L 863 87 L 862 84 L 862 26 L 858 22 L 856 21 L 850 21 L 848 22 Z M 736 21 L 733 25 L 733 105 L 734 107 L 737 109 L 816 109 L 820 107 L 823 102 L 823 97 L 821 93 L 818 91 L 814 90 L 754 90 L 752 88 L 752 76 L 756 73 L 817 73 L 819 72 L 822 69 L 823 67 L 823 61 L 822 59 L 819 56 L 817 55 L 755 55 L 752 52 L 753 40 L 755 39 L 817 39 L 819 38 L 822 35 L 823 33 L 823 28 L 822 25 L 819 22 L 817 21 Z M 602 24 L 600 28 L 600 101 L 601 104 L 603 107 L 607 109 L 612 109 L 614 108 L 618 104 L 619 101 L 619 76 L 621 74 L 684 74 L 686 76 L 688 86 L 688 92 L 690 103 L 691 105 L 694 108 L 696 109 L 703 109 L 707 105 L 708 103 L 708 97 L 702 65 L 708 57 L 710 50 L 710 44 L 709 39 L 705 31 L 701 27 L 694 23 L 687 21 L 606 21 Z M 620 44 L 621 41 L 623 39 L 686 39 L 688 40 L 690 43 L 690 51 L 687 54 L 623 54 L 620 50 Z M 490 21 L 487 24 L 487 106 L 490 109 L 570 109 L 572 108 L 576 104 L 577 101 L 577 98 L 576 95 L 573 92 L 568 90 L 508 90 L 505 86 L 505 77 L 506 75 L 509 73 L 571 73 L 575 70 L 577 66 L 577 62 L 575 58 L 573 56 L 571 55 L 510 55 L 506 53 L 505 51 L 505 43 L 506 41 L 509 39 L 571 39 L 575 36 L 577 32 L 577 28 L 575 24 L 571 21 Z M 392 21 L 390 22 L 389 24 L 389 36 L 390 38 L 392 39 L 416 39 L 419 42 L 419 102 L 421 106 L 426 109 L 430 109 L 434 107 L 437 103 L 437 43 L 438 41 L 441 39 L 467 39 L 469 37 L 468 22 L 466 21 Z M 300 21 L 298 22 L 297 24 L 297 37 L 299 39 L 323 39 L 325 40 L 327 44 L 327 103 L 328 105 L 331 108 L 334 109 L 338 109 L 340 108 L 344 104 L 345 102 L 345 42 L 348 39 L 374 39 L 377 36 L 377 24 L 374 21 Z M 221 25 L 217 31 L 213 42 L 208 59 L 201 76 L 194 96 L 194 103 L 195 105 L 198 108 L 200 109 L 206 109 L 208 108 L 211 105 L 213 101 L 216 90 L 218 88 L 267 88 L 270 92 L 274 105 L 277 108 L 279 109 L 285 109 L 287 108 L 291 104 L 291 102 L 292 100 L 285 78 L 280 65 L 269 30 L 267 27 L 264 24 L 261 22 L 258 21 L 228 21 L 224 23 L 222 25 Z M 236 40 L 238 39 L 249 39 L 253 42 L 261 64 L 261 67 L 259 69 L 227 69 L 225 67 L 225 65 L 231 47 L 233 43 Z M 968 27 L 966 31 L 965 35 L 965 101 L 966 104 L 970 108 L 972 109 L 977 109 L 981 107 L 984 102 L 984 43 L 988 39 L 1001 39 L 1005 42 L 1012 60 L 1018 79 L 1025 97 L 1027 101 L 1032 106 L 1038 109 L 1047 109 L 1050 108 L 1055 105 L 1058 102 L 1064 89 L 1069 73 L 1075 60 L 1081 42 L 1085 39 L 1098 39 L 1101 42 L 1102 44 L 1102 102 L 1103 105 L 1106 108 L 1108 109 L 1114 109 L 1116 108 L 1119 105 L 1121 101 L 1121 35 L 1120 31 L 1118 27 L 1114 23 L 1107 20 L 1078 20 L 1075 21 L 1070 24 L 1066 29 L 1049 73 L 1047 81 L 1045 85 L 1042 86 L 1040 84 L 1033 66 L 1032 60 L 1029 52 L 1025 44 L 1022 33 L 1019 27 L 1015 23 L 1008 20 L 979 20 L 972 23 Z M 21 31 L 20 35 L 20 101 L 21 104 L 25 108 L 27 109 L 33 109 L 35 108 L 38 105 L 39 102 L 39 44 L 40 42 L 43 39 L 56 39 L 60 42 L 63 49 L 67 62 L 78 92 L 82 101 L 87 106 L 94 109 L 103 109 L 109 106 L 114 101 L 116 97 L 120 84 L 123 79 L 126 71 L 128 63 L 136 43 L 140 39 L 153 39 L 157 43 L 157 102 L 158 104 L 163 109 L 169 109 L 171 108 L 175 104 L 176 101 L 176 34 L 173 27 L 169 23 L 162 20 L 134 20 L 130 21 L 125 24 L 123 26 L 120 32 L 111 55 L 106 71 L 103 76 L 102 81 L 100 85 L 97 86 L 95 84 L 89 65 L 85 57 L 82 46 L 75 28 L 69 22 L 63 20 L 34 20 L 27 23 L 23 27 Z" fill="#000000" fill-rule="evenodd"/>
</svg>