<svg xmlns="http://www.w3.org/2000/svg" viewBox="0 0 2198 372"><path fill="currentColor" fill-rule="evenodd" d="m1399 41 3 5 2 7 2 21-1 43-5 79-4 51-4 36-5 25-3 8-4 7h198l-1-20 2-8 9-23 12-26 3-4h34l30-1 17-2 10-2 6-3h2l2 2 7 27 12 38 7 15 5 6 7 3 9 1 30-1 16-2-9-10-5-8-6-12-8-20-9-27-14-48-31-114-2-11-6-22-2-4-1-6h-61l3 7 1 9-6 18-18 41-38 81-36 72-3 4h-1l-5 4-10 5-14 4-19 2h-37l-8-3-2-2-2-4v-34l7-76 1-27 4-46 2-17 5-25 3-8 4-5Zm267 66 3 7 25 86v6l-74-1 41-88 2-6ZM917 41l3 4 2 6 2 13v44l-3 52-2 15v16l-5 62-4 34-5 23-4 9-4 4h75l-4-7-2-9-1-9v-31l3-56 2-14h7l4 2 9 9 80 112 10 11 4 2 9 2h36l16-1 1-1h9l-8-5-18-19-34-44-49-66-13-15 5-3 10-3 12-6 14-10 10-10 7-10 4-8 5-18 1-8V95l-3-16-7-14-10-10-6-4-11-5-17-4-8-1Zm114 40 5 4 4 5 3 5 2 7v16l-3 12-6 11-11 11-6 4-12 5-9 2h-8l-1 1h-7l-1-1-9-1 1-20 4-46 2-17 2-4 5-1h23l11 2ZM725 41l3 9v9l-9 24-27 60-33 70-21 42-24 42-12 17-8 9h66l-2-9v-7l2-10 10-26 14-29h34l31-1 22-3 11-4 3 1 1 2 6 24 13 41 6 13 6 7 6 3 10 1 29-1 17-2-7-7-5-7-7-13-9-22-10-30-14-48-8-33-6-22-4-11-12-44-10-41-2-4Zm22 66 2 2 2 6 2 10 7 21 16 56-1 4-73-1v-2l31-65 6-15ZM404 41l3 4 2 6 2 12v47l-3 51-2 15v15l-4 53-5 44-2 11-4 14-6 10h111l11-1 17-3 20-6 22-11 7-5 9-8 6-7 8-12 5-12 3-15v-16l-3-15-6-13-5-7-7-7-8-6-14-7-9-3-13-3h-5l-6-2 4-2 13-4 18-10 13-11 9-12 3-6 4-14V87l-1-6-5-13-4-6-7-7-6-4-8-4-19-5-8-1Zm55 145h29l15 2 8 2 10 4 8 5 8 8 5 8 3 9 1 6v12l-1 6-2 7-7 12-12 11-7 4-11 4-16 3h-20l-5-1-9-3-4-4 1-36 4-43v-14Zm10-112h30l11 2 6 2 8 4 9 9 3 6 1 4v12l-1 5-6 12-9 9-10 6-15 5-11 2h-12l-1 1-12-1v-11l3-37 3-24 1-4Zm1304-33 8 7 7 9 18 29 20 40 11 25 10 26 9 28v29l-4 42-3 18-4 16-3 8-4 5h75l-4-7-2-7-2-19 2-50 3-24 2-9 11-21 16-27 31-48 31-44 12-15 11-11h-71l3 10v11l-1 5-3 8-27 44-28 43-2-3-3-10-13-32-20-46-10-20-8-9-6-3-6-1h-22l-19 1Zm423 0h-5l-1-1h-10l-18-3-23-2h-22l-18 2-21 5-16 7-12 8-10 10-6 9-5 11-4 18v19l1 6 4 13 4 8 8 11 13 13 14 11 23 15 16 9 10 7 14 13 4 6 4 10 1 8-1 8-2 6-4 7-8 8-8 5-8 3-9 2-13 1-13-1-19-5-10-5-9-6-13-12-7-9-7-12v9l-1 1v14l-1 1-2 30v14l4 1 3 2 16 5 28 6 9 1h35l8-1 18-4 9-3 17-8 8-5 11-9 11-13 9-18 3-13v-21l-1-6-2-7-6-13-6-9-6-7-13-12-9-7-18-12-17-10-16-11-15-14-6-10-1-4V98l3-9 2-3 9-9 8-4 6-2 14-2h6l18 3 6 2 12 6 10 7 10 10 6 9v-6l1-1Zm-838 0h-6l-1-1h-12l-17-3-22-2h-21l-24 3-16 4-13 5-12 6-19 13-16 16-7 9-10 16-7 15-5 14-4 15-3 16-2 20v26l3 21 7 23 5 11 10 16 8 10 7 7 10 8 11 7 11 5 12 4 16 3h31l8-1 13-3 11-4 12-6 9-6 7-6 9-10 11-17 5-11 3-9-7 4-8 6-18 10-9 4-12 4-16 3h-22l-11-2-9-3-10-5-11-8-7-7-8-11-6-12-4-12-3-14-1-9v-24l2-18 3-15 6-19 6-13 4-7 8-11 10-10 5-4 10-6 14-5 15-2 15 1 14 4 9 4 10 7 13 13 8 13 2-11 1-19ZM154 1l-5 2-3 3h-10l-7 1-6 2-9 5-3 3-3 5-1 7 2 4 4-3 4-1h9l5 1 5 2 7 6 2 3 2 6v15l-3 12-5 9-6 6-5 3-10 3h-16l-4-1-6-3-5-6 8-7 2-4 1-5-1-7-2-4-7-7-10-5-13-2-14 2-6 2-11 6-10 10-5 7-8 16-6 19-2 10-2 18v29l3 28 5 21 10 26 13 25 4 5 1 3 3 2 10-10 14-19 3-7 2-2 3 3v10l-2 8-7 18-9 16 1 5h5l4-2 8-6 8-8 9-11 11-16 7-12 5-11 2-1 2 2v10l-3 11-5 13-11 21-13 19-7 8v4l20 16 25 16 35 17 14 5h5l23-9 31-16 21-14 14-11 5-5-1-4-10-12-10-15-10-19-4-10-5-17v-6l3-4 2 2 4 9 7 12 18 25 13 13 9 6 6-1 1-2-13-26-4-12-2-9v-5l1-3 4-1 3 7 12 17 12 13h2l10-16 11-22 10-28 3-13 3-23 1-28-1-16-2-14-3-13-4-12-9-18-5-7-8-8-12-7-10-3-13-1-11 2-11 6-6 7-2 6v6l3 8 3 3 4 2 1 2-7 6-9 3h-15l-4-1-6-3-4-3-7-8-3-6-3-13-1-10V35l-1-7-3-10-2-4-6-6-10-5-10-2Z"/></svg>