<svg xmlns="http://www.w3.org/2000/svg" viewBox="0 0 1122 1402"><path fill="currentColor" fill-rule="evenodd" d="m235 1401 7-1 15 1-2-2h-2v2h-12l-1-2h-3Zm688-13-3-2-1 4-4 2 4 1 2-4Zm-700-22-5 1 1 2h2Zm712-3 2 3 8 3v-2l-4-2-1 1Zm32-2h-2v2Zm-19 0 5 2-1 3-5 2 2 2-5 3h5l1-5 2 2-1 2 3-1 3 2 1-2 2 2-1-2h2v-3l-4 4-1-4 1-2h-2l-2-3Zm-731 4 3-4-3 2Zm-14-2 2-1 3 3 1-2-2 1-2-3Zm782-2-2-1-1 2-1-3-1 2 2 1-3 1 1 1 3-3Zm-26-2-1-2-2 2Zm-779-9 1 2 4-1Zm811-2 5 1-2-1 1-2Zm-816-8v3l2-1Zm3-5-1 1 2 1Zm-25-22 3 3v-3Zm-2 0-4 3 2 3v-4Zm6-10-1 2 2-1 1 2 1-2Zm2-23 4 3 2-3-2 2Zm-21 0 1 2h3Zm32-1-2 1 2 2Zm-23-5-6 4 4-2v2Zm750-9-3 8-8 9 8-9Zm-721-13v-2l-2 1Zm219-17-6 6-1 3 1-3Zm484-4 8 6 7 8 4 10v8-11l-4-7-9-10Zm-647-3-5 3-11 11-4 8-1 10 6 13 10 10 16 10-13-8-13-13-5-11v-8l4-10 6-7Zm721-54-2-1-3 1Zm-19-4 14 1 8-1-13 1Zm-222-16 2 3h2Zm-17-2 3 6 2-2h-2l1-2Zm-337 1h2v-2Zm350-6 1 4 1-2Zm-484 0 1 3 1-2Zm470-2-1 4h3l-3-1Zm-473-7-2 1v6h4l-4-4Zm-7-1 2 4v-3Zm712-2-4 4 3 6 2-2 3 2 3-4-3-2-5 5-1-3 3-2Zm-32 7 1 3 4-3 2 3 6-2 3 2 2-2-2 1v-4l2-1-1-4-3 4 1 2-3 3v-4l-4 4v-5l-2 4-4-6 1-3Zm0 1 1-2 3 1Zm-214-10-1 2h2Zm309-2-3 2-1-2 1 3-1 3 4-4Zm-319-2 2 4h2Zm253-13-5 5v-3l-5-1-1 5 3-4 3 4 1-2 3 2 2-2Zm-3 4 1-2h3l-1 2Zm-26-3-1 3 1 2 7-1-1-3 2-2-3 1 1 3h-6l2-3Zm47-1 1 6 10-1-1-4-2-1-3 2-1-5h-2v2Zm8 1 1 2-2 2-1-2Zm-7 3 1-2 3 1Zm-12-7-3 3v6l3-2-2-2 2-2Zm-525-1-2 1 1 2-1 1 2 1-2-3Zm234-1-2-2-3 2Zm-233-2 3 4-2-1 1-1Zm1-3-1 1 2 1Zm223-1v2l2-1Zm-2-5v4l-1-2Zm299-6-1 2-1-2h-2l2 5 2-2Zm81-3 3 3-1-3Zm-3 2h2l-1-2Zm-51 2-2-1-2 3-3-3v2l-4 3v-5h2l-1-4-3 4h-5l-2 4-3-2 3-1-2-2-2 2v4l4-1 2 1 2-4 4 4 4-2 1 2 7-1-3-2Zm22 0 2 4 8-3 2 3 8-1-1-2 1-1-2-2-5 5-1-5-2 2-2-1-2 4-1-4-1 3-3-1 2-8Zm-10-7-2 6h-6l-2 2v3h8l2-2-1-4h2Zm-72 1 3 1-1 9 2-8 2-2 4 1-3 6v3l3-4 1 4 8-1-3-2h2v-2h-2l-3 5-1-5-3-2 2-3Zm111-2 1 2 1-1Zm-557-20-2 3 3-1 3 4 1-2-3-1Zm156-4-4 4 1-2 1 2 2-1Zm-154 2-1-2 1-2-4 1Zm515-7h-3l-3 3v4l2 2 4-2-2-2 1 2h-4v-4l2-2 3 1Zm-14 0-1 9 2-5 4 4v-8l-2 5Zm-13 0-1 3 1 6 1-4 4 4-2-4 2-3-2-2Zm0 2 2-2 2 2Zm-4-2-4 1-1 8 5-1-3-3 2-1-2-3Zm-7 0-6 1 3 2v6l1-8Zm-14 0-1 3 1 5 1-4 4 4 1-2-1-6-1 6Zm-4 0h-4l-1 5 1 4 4-1-3-3 2-1-2-3Zm-9-5-3 1-4 6v4l3 3h3l2-3-2 2h-3l-2-2v-5l1-2 7-2Zm-422 0-2 1v2Zm-319-4v4-2h2Zm438-3v3l-2-2-1 2 2 3-4-1v26h2l-2-5 4-1-3-3 3-1-1-7 3 3h2v-2l-5-2-2-7 3 1 2-2-1-2 5 1Zm-4 16 3 2-2 2-2-2Zm446-22v2l2-1Zm6-8-1 2-1-2v3Zm-564-8 4 1-2-2Zm-347-4-1 1 7 12Zm843-3v3l3-1Zm-71-6v4l2-2Zm-432-2 11 2h-3v-2l-4 1Zm40-4-2 1v2h2Zm-52 1h3l3 2-2-2Zm25-3-2 1v2Zm16-5 5 5v-2h-2Zm403-2v6l2-1Zm-789-4-1 1 5 5Zm816-1 9 8 9 5-9-5Zm133 0-3-1zl-3 3-2-2-1 2 1 2 1-3 1 3 1-3 1 2-1-2Zm-136-2h2l1-2h-3Zm112-5 1 10-4-2 2 2 3-1Zm-918 0 4 1-3-2Zm402 0-2-2v3l-2 1v-2l-2 4 1-3h3v3-4Zm-54-2 3 2h5Zm566-9v3l2 3Zm-595 0 3 1-2-2Zm27-4v3l2-2Zm7-1 1 2zl-2 2 1 2-1-2Zm-372-4-2 2h3l1 2Zm288-1v2h6Zm696-1-2 2h2Zm-759-5-3 2-2-1 3 4Zm55-1-5 2 2 2v-2Zm61-2h-2v2Zm-345 2h3l-1-2Zm292 3 1 2 10-4 8 2-4-2 4-3-8 2-6-3 5 5-1-1-4 2Zm-79-5h5l-1-2Zm594-2-2-2-1 3Zm9-3v4l2-1Zm-486 1 5-2h-3Zm-42-3 1 2 5 2Zm-293-1 1 2 2-2Zm882-6-1 10-4 2 2-1 1 2-2 2 9-3-4-2Zm-554 6-1-6-4 4h-3l2 2 3-3Zm4-7 2 2 5-1 2 3v-3l-5-1-2 2Zm-333 3 3 2h3l-3-5Zm679 3 10-9-7 5Zm-25-7-2-2-9 7Zm253-6h-2l1 3Zm103 1-4-2-2 5 1-2Zm-996-2-2-1-4 1-4 4-2-4v6l5-4 2 4 6-1-5-1Zm908-14 5 5 4 8 4 14v5l-1 2-18 1 19 1-2 13 2-6 1-11 4-9-4 9-2-11-4-11-5-10Zm-879-12h-2l-3 3 2 4 5-2Zm0 2-1 2-3-1Zm-17-2-1 7 3-5 3 1v2l3 2 2-2-2-1 2-1-2-3-3 3-1-3-2 1Zm-22 0-3 1-1 2 1 4-2 4-1-3-3 1 7 2 1-2 2 2-1 2 2-3-2-2h-4l5-3 1-3Zm-3 3 2-2 2 2Zm-2-3-4 1 1 5h-3l3 1 2-2v-2l-2-1Zm52-4-5 4 1 3 3 2h-2v-3l4-3-2-1Zm965-1-3 4h4l-2-1Zm-164 0-10 7-7 7v2l2-1v-2l5-6Zm-796-1-2 4-1 8 3-5v4l2 2 2-2-2-1-1-4h-3l2-3Zm-35 0-4 12h4l2-2v-3l-3-2Zm0 7v4l-3-1Zm862-19-2 3 2 2-3 2 3 1v6-6l2-1-1-3 1-2Zm129-13-4 5v2-2h2Zm-991 12 1-3 4-1 1 4 2-2 3 2 3-3 3 3 2-2 3 2 2-2 7 2 2-2-2-3 2-2-3 1 2 4-5 1-2-2 3-6v-4l-2 5-3 1-3 4h-4l3-10-4 11-1-4-3-1-3 1v4l-3-5h-3l2-3v-3l-2 3Zm25-4-3 3-1-3Zm-13-2 1 3-2 2-2-2Zm448-19-1 2 1 2Zm-315-2v46l-1 5 1 1-1 11 1 36-2 3-1 6 3 3 1-3h4l-5-2 2-5-2-1-1-71Zm744-6-6 3 1-3-1 5h4l-3 6-3-1 2-2-2 1-1 3 2 1 2-1 2-5 3-3-2-1Zm-22 3 1 2v-2l4-1v3l8-1-3-2h3v-2l-4 1-2 4-2-2 1-3-3 1-1-1Zm-1-3h-4l-1 5Zm-12 0-2 4 7 1-2-2 2-3-5 5Zm-4 0-4 1v4h3Zm0 1v2l-4 1v-2Zm-7-1-3 10-2 2-2-2 1 2 3-1Zm-15 0-2 1-2-1v5-2Zm-11 1v4l4-1-3-2 3-2Zm-18-1-4 2v3h3l2-2Zm-3 1h3v2Zm-9-1v5-2l3-3 2 5-1-2 1-3-3 1Zm-8 1 5 4v-4Zm4 1-3 3-1-3Zm-773 2 1 2v-2l3-3 1 5 3-1-2-1-1-4h-3Zm-2-4h-2l-3 4-1-2-5-2-3 13 2-6 6-4 2 3 4-1-3-2 4-1Zm-7 3-3 3-1-3Zm-8-3h-2l-3 3 1 3h3l2-2Zm0 2-2 4-2-3Zm-17-2-4 1v5l5-1-4-2 3-1Zm830-4-4 8h4-3l1-4 3-1-2-1Zm6-2-4 11 4-5 1 2-1 3h2l-1-5-2 1-1-3Zm192-2-1 2 2 1-3 3-2-2v5l4 3-3 1-5-2 3 4-4 3 2 4-2 2 3 1 1 2-6 3-1 2 1 2-2 1v3l4-1 2 2-3 3-1-2v2l4 4-1 2 3 11-6 4 2 1v5l2 1h-4v4l-2-4-2-1v2l4 3 3 5-7 2-2 2v2l3 1 1-2 2 5-1 4-2-2-2 2-2-2 5 7-1 3-3-3v-3l-2 1-1-3-1 1 5 6-2 2h-5l-3 5 4-2-2 2v-4l6-1 2 2-2 2-2-1-1 2 3 3v4h-3l-3 2-3-3-2 2 4 2h-3l3 3-4 1h5l2 2-9 3-1 2-3-3 2 1-1 2-2 1-4-2 3 1-6 5-2-2-1 2-1-2-2 2h2l1 2-2 2 2 5-5-4-2 3 5 3-2 3h4l3 5-3 3-4-4h-3l1 4-4-2h-3l-2 2v-2l-2 2h-3l3 1-2 1h2l1-3h3l2 2-1 3-3-1-5 6 1 4 3 3-2 3-2-1-2 1-1-2-3-1 3-2 2 1-1-5-3 1v-57l2-2-2-41 1-23-3 1 2 3v17l-2 3 1-2 1 85-2 5-2-5 2 7v8l-4-2 2 2-2 1 2-1 3 2h-68l3-1-3 1-1-2 2-2 6-1 4 1 3-3h3l12-8 12-14 6 3-6-4 4-6 2-8-3 9-4 5-2-1 2 2-1 2-3 1v3l-13 12-13 6-5 1-7-1v-27 27l-2 2h-3l3 2 2 4 2-2 36 1 31-1 2 5h2l2 3-3 3-1-2 1 3-1 3h-2v2l2 1-2 1 1 2-2 1-1 3h2l1 5-5-4 1 2-4 6-3 1v4l-2 4 2 1v3l-3 2h-3l-2 3 2 1-2 2-2-3 1 6-5 3 5 1-2 1 3 2-3 1-3-2-5 1-2 3-2-2 3-4h-4l2 3-2 4-4 3v4l4-2-3-2 2-3 2 2 2-1 2-4 2 4h-2v2l-3 1v3l-2 2v2h2l1 2-3 1 2 3-3 2-5-4 3 2v3h-2l-3-2v-3h-2l-1 3-4-2 5 3 2-1 1 2-2 3-5-3-3 3-4-4v2l3 3-6 5v-2l-4 1-1-2 2-2 2 1-2-1 3-1-2-1 2-1-8 6 2 2-2 1v2l4 2-4 5-1-3 1-2h-3l-3 3-1-3-1 3-4 1 2-3-4 4-1-3 2-7-3 6-1-1-3 3 6 3 1-2 5 4v3h7l-5 5 3-2v3h2l-2-3 7-1-2-4-3 1 1-2-3-1 4-2h13l-1-2 2-3 1 2-2-4 2-1 2 2 6-3 5 1 2 2-5 1h5l5 4-3 3-1-3-2-1-1 2-1-2 1 5-4 1-3-4h-2l2 1-2 1 4 1-4 3-1 3-3-3-1 2 1 2 3-1-3 6h-2l1 3-4 2-2 3h-2l-2 4-2-2 2-1-3-4-1 2-1-3 2-3-1-3-2 5h-2l-3 4-2-4-2 1-2-1v3l-2 2-1-3 1-2-3-2 1-4-1 2-1-2 1 2-2 2-1-2v2h-2l-1 2h-3l-1 3-3-3-2 2-5-2-1 6 3-5 3 1-1 2 2 2h2l2-3 1 3 2-4 2 3 3-2v3l-4 2v2l-3 2 2 2-6 4-3-3-7 3v-2l-8 3-9-3 1 4-3 1-1 2-3-1-2 2-2-1-6 4-1-2-6 1-3-3-2 2 2 1-10 2-22-1-11 1h107l4 1 5-1 6 2v2h2l1 2 4-3 8 1 2 2-5 2 3 1 1-2 3-1v2l6 1 4-1v3l-3 2h-5v2l2 1-2 2 4-1 4 2 13 2-1 2 10 1 3 4 6 2 2 3-5 1 1 2-2 1-2 4-5 3h-3l2-1 2 3 1-2 3 1 3-1 5 5 1-3 1 6 5 3 3 5h-3v2l1-2 2 2 1-1 1 4 4 1-1 1 2 2-6 1-2-4-7 1 2 2-2 2-3-1 9 1 2 3-8 3 3-1v3l2 2 1-2 7 4-10 1-5 2-1 4 1-3h3l3 2v4l-2-1-3 1v2l2-1 2 5 3 1-3 3-3-5h-2l2 3-3 1 3-1 2 4h4v3l2 2-4 1v-2l-3-2 3 4h-5l2 4 2-2 4 3-1 3-6 2 5-1 1 3 2-1 5 2-1 2 4 2h-3l-1 3 2 5-10 1v2l-4 2 3-1 2 2-2 2-9-1 3 1-2 2h-6l-2 5-4 3v2l3 2-1 1 2 2-3 2h-5l-3 3h-2l-1 4-3 1 1 1-4 1 1-1-2-3 2-4-2 3h-2l3 3v2l-9 2-2 3 4 1 1 3-6 4 5 8-5-4v2l-9 2v2l-5 4h-2l1 1-2 2-3-3 1-2-1 2-1-4-2 3 2 4-2-1-1 2-3-1 2-1-2 1-2-1-1 2-3-2 2 6h3l-1 3-4-1-1-2h-3l-1 2h-3l-2 4-2 1-2-2-2 3-5-1 3-2-8-3 3-5 1 3 2 1-1-3-3-2-1 3-2 1-3-1 2-3-1 2-2-3-1 3 1 3-2 1-2-1-1-2 2-3-1-2-1 2 1 1-7 2 4 2-2 2-2-1 6 6-3-5 2-2 2 3h2l2-3 2 3-4 4 2-1 4 2-2 1 2-1v3h-6l7-1 5 3-3 3-2-3-5 1-3-1-3 2-1-2v2l5 3-4 1-1-2h-2l-5 3 3 2-1-2 2-2 4 3-6 4-6-5-1-3-1 4-4-2 3 6 12-1 198 1-2-519 2-3-3-14 3-2-1-5 1-2-2-2 2-3Zm-195 553 3-1 3 2-3 1Zm12-5 1-2 3 2Zm0-7h4l-2 2Zm0-4 3 3-4-1Zm31-3 2-2 3 1Zm-10-2 4-1v3Zm22-5 2-1 2 2-2 1Zm-3-3 1 5-3-3Zm-11 2 2-2 5 1 1 4-3-1-1 2h-2Zm20-4 2-2 5 1Zm0-3v3l-2 1v-3Zm10-3-4 3-2-2Zm2-10 6 6-6-3Zm12 0-2 2-4-3Zm-6-4 2 3-3 1-1-2Zm25-30 2 1v4l-4-3Zm14-5-3 2-2-2 3-1Zm14-24 1 2-2 2-1-2Zm-8-4 1 4-3-2Zm-75-138 1-2 2 2Zm9-4v5l-3 1-3-2 2-2 3 1Zm-11-2 1 4h-4Zm28-5-3 3v-2Zm0-2 2-2 3 1Zm-22-16v6l-1-1-1 1-1-2Zm-14 0 1 2-2 2-1-2Zm53-4-5 2 2-3Zm2-3 5 3-3 1-2-1Zm-28 0 1 6-3 5-1-4Zm-3 0-1 6-3-1Zm-4-2v4l-2-2Zm40-1-2 2-3-1 3-3Zm-24-4 5 5-2 1-1 3-1-3v2l-6-1-1-2Zm23-5 2-1 2 2-2 1Zm5-4h-5l3-2Zm-5-8h3l1 4-1-1-4 1Zm-5 0 4 4-2 1-3-3Zm2-8 5 8-3-1-3-5Zm13-7 1-2 2 2Zm-3-3v5l-2-3Zm6-6v4l-2-2Zm2-8 4-2 1 3Zm20-34 1 2-4 1Zm12-2 2-2 3 2-2 1Zm-4-7 3 2-3 4Zm9-2 1-2 2 2Zm-10-2h5l-3 2Zm0 1-3 5-1-3-3 2v3l-2-1-2-5 3 1 1-2 5-1Zm-4-3-1 2-3-1Zm16-2 2-1 1 2Zm7-2v4l-3-2Zm-19 0h4l-1 3Zm16-1 1-2 2 2Zm-11-2 3 3v2l-3 3-2-2 3-2-3-2Zm24-3 2-2 5 3h-3l-1 2Zm-2-4 2 1v3l-2-1Zm-16 0 4 4-2 1-3-3Zm13-1 5-1-2 2Zm7-3 3 1v2l2 1-3 1-3-3Zm-8 1 2 3-4 1-3 3-2-3h2l1-3 2 1v-3Zm-9 1 1-2h3l1 2-3 2Zm-2-2 3 4h-3Zm15-1 2-2 2 3Zm-4-5 1 4-2 3-2-3Zm-6-1 3 3-2 2 1 3-1-1-1 1-2-7Zm-2 1-1 4-2 1v-2l-2-1Zm4-4-4 4-2-3 2-2Zm16 0-2 2-4-1 5-3Zm-14-4v3l-3-1Zm6 0 2-1 3 3-2 1Zm-2-2 3 3-2 2 3-1v3h-3l2 1-2 1 3-1 2 2-5 2-3-4 1-2-2-3Zm15 0h4l-2 2Zm0-6 1-2 4 2-3 2Zm-6-6v3l2 2h-2l-1 4-4-5 3-1Zm10-2 1 4-1 2h-3l1-2-1-1Zm0-4 4 4h-4l-1-1Zm-4-3 1-2 2 2Zm1-14 1 5-2-2Zm6-19 2-1 2 2-2 1Zm2-31 1-2 2 2Zm2-10 1 2-2 2-2-2Zm1 1 1-2 2 2Zm-5-3h2l1 2-2 2-3-2Zm2-31 1 4h2l1-2h-4Zm-154-13-1 2 2 2 2-2h-3Zm-12-2-3 4 5 1-4-1 4-2v-2Zm-4 1-4-1-1 5 1-2Zm-28 4 6-3-2 3 1-2 4-1v4l2-1-5-4-4-1Zm-2-5-4 1-1 3 2 2 2-1Zm0 1v2l-4 1v-2Zm-6-1h-4l-1 5 1-3Zm-835 1v5l4-2 1 2h2l3-3 2 3v-2l3-3 1 5 3-2h-3l1-4-3 1-2-1-1 4-2-4h-3l-5 4 1-4Zm6 0 3 1-1 2h-3Zm877-2-2 1 2 4-2 2-2-2 2 2 2-1-2-4Zm7-3-3 4h3l-1-2Zm-60-2h-7l1 3-3 8 3-5h4l-4-2 3-4Zm-785 8 5 4 3-1 6 1 3-1-2-4 3-1-4 1 3 3-5 1-1-4 1-7-2 6h-3l-5 5-1-3 3-8Zm5 2 1-2 3 1Zm-18-9-2 11 1-3 4-1-1 4h2l1-2 2 2 3-1 1-2-1-3h-2l-4 5-1-5-3-1 2-5Zm8 6 3 1-1 2h-3Zm-59-7-10 1 4 1-3 10 2-1 3-10Zm17-8-7 3-1-2h-2v2h8Zm-1-5h3l2 3 2-1-2-4-2 2v-2Zm878-2h-2l1-4Zm70-4-3 1 2 2-2 2-2-1h4l-2-4Zm-7-1h-2l-3 3 1 3 4-1-3-2 3-1Zm-6 0-2 1-2-1-1 6 1-4Zm-25 0-4 2 2 4 3-3Zm-1 0 1 4-2 2-2-3Zm-24 0-4 1-1 5v-2l6 2Zm-17 2 2 4 3-3v-2l-2-1Zm3-2 1 4-2 2-2-3Zm-7 0-1 1-2-1-4 13 3-7h3l3-4Zm-4 4 1-2 4 1-3 3Zm-15-4-4 2 1 4 4-1-3 1-2-2 4-2Zm-16 0-4 2 2 4 3-3Zm-1 0 2 2-3 4-2-3Zm221-1 1 3-1 3h2v-5Zm-95-3-3 4v6l3-1-2 1 1-6h2Zm-62 0-3 4 1 6 3-1-2 1-2-2 2-4h2l-2-2Zm27-3-6 8 2 1-3 8-3 2 4-2 1-6 4-4-2-1 1-4h3Zm-798-4-1 3 1 5 1-5 4 5 1-3-1-5-1 5Zm-7 0-2 2 1 6h3l2-2-1-6Zm1 0 2 2v4l-2 2-3-4Zm-6 0-1 3 1 5Zm-17 8 2-4 3 4v-8l-1 5-3-5Zm-22-8-2 2 1 6 1-5 4 5v-8l-1 5Zm-23 0-2 2v6l5-1-4-1Zm-6 0-2 1-2 7 1-2h3l2 2Zm-42 8 4-1 1-3-1-4v5l-4 1v-6Zm108-8h-7l3 2v6-6Zm-17 0-2-1-3 1-1 8 5-1-3-3h3l-2-1v-3Zm-13-1v2h2v7l2-8h2Zm-47 1-1 2 1 6 1-3 3 3-1-2 1-6Zm2 0 2 2-2 2-2-2Zm35-5-5 1 2 1-1 9-2 2h5l-2-2v-5Zm888-4 1 2-1 2Zm-50-4-1 5 2-1-2-1Zm46-1-4 5-1-4-1 3 1 2h3l-4 3-2 5 4-1Zm-3 10-4 4v-4Zm-13-10-1 2 3 2h-3Zm-3 1-3-1-2 2 1 4 3-1-4-2 3-3Zm-9-1-1 6 2-1-2-1Zm-9 0h-4l-4 13 2-3v-3l6-3 1-2Zm-2 0 2 3-2 2-3-1Zm-22 5-1-5-2 4h-3l1-3-2 2Zm-20 0 6-3-1 3 5-3 1 4-5-5-4-1Zm-19-5v5l2-3h3l-1 2 2 2-2-6Zm-9 0-2 2 4 3v-5Zm1 0 2 3-3 3-2-3Zm-5 0-2 1-2-1-1 6 1-3Zm-858 0-3 4 1-2 2 2Zm963-4-3 4v6l3-1-3-1v-2l4-3-2-1Zm-42 0-4 4 1 6 3-1-2-3 2-2-1-2Zm19-2-3 8v4l2-1-2-2 2-3Zm-25 0-3 8 3 3-2-1Zm-61 0h-8l1 3-2 9 1-4 2-2h3l-4-2 3-4Zm-857-7v3h2Zm7-13 1 5h2v-2Zm1014-10 1 8 4-1-4-1 1-3h2-2v-3l3-1Zm-8-1v8l2-3 3 3-2-3 1-5Zm2 0 2 2-2 2Zm-5 0-1 6-4 1v-7l-1 7 2 2 4-3Zm-8 0-6 1 3 1-1 6 2-8Zm-11 0 2 1-3-1-2 2 1 6 4-1-3 1-2-2v-3Zm-11 0-1 6 1 2h3l2-2v-6l-1 6-2 2-2-2Zm-8 0-1 8 2-3 4 3-3-4 2-1-1-3Zm4 2-4 1 2-3Zm-7-2h-6l3 2-1 6 2-8Zm-29 0-4 2-1 2 1 4 5-1 1-5Zm-1 0 2 2v4l-2 2-3-1v-4Zm-12 0h2l2 3-1 5 2-8 2 1Zm-10 0-4 3-2-3 2 4-1 7h2l-1-4Zm-14 1v7l2-3 3 3-2-3 2-2-1-3Zm5 1-4 1 2-3Zm-7-2h-6l3 2v6l1-8Zm-13 0-1 8h5-3l-2-2 4-2-3-1 1-3h2Zm-10 0-2 6 1 2 1-5 3 2 3-1v4-8l-2 3h-3Zm-8 0-3 6 2 2h3l2-2v-4Zm1 0 2 2v4l-3 2-2-2v-3Zm-11 1v7h5l-5-1 1-3h2l-2-1 1-3h3Zm101-5h-4l-2 2v2l5 5-3 3-4-2 1 2 6-1-1-5-4-3Zm-109 0-3 3-2 5 2 4 6 4 1-9-3 1 3 1-3 3-4-1-1-2 1-5 7-3Zm-854-2-1 1 3 2Zm11-12h-2l1 2Zm75-5 6-4 2 3-6-5Zm-1-6-3 1-2-1v6l1-3Zm-8 0h-3l-2 2 1 4h2l3-3Zm-2 0 2 2-1 2h-3Zm-24-1-3 1 2 4-6 1-1-5-1 6 9-1-2-4h3Zm17-6-5 12 4 1 3-3-1-3-3-1Zm0 7 1 3h-4Zm-42-7-4 11 1 2v-2l3-3 1 5 3-2h-2v-4l-3-1Zm-33 0-3 1-1 2Zm3 0h3l-1-2Zm84-20h-4l-1 6 1-3Zm-8 0-2 2v4h2l-1-4Zm-36 2v4l3-1 4 1v-2l-2-1 1-3h-4Zm0 2 1-2 3 1Zm54-11-2 5-7 5 1 3 8-1-3-1Zm-5 7 1 3h-4Zm-20-7-5 12h-2l-1-3 3-3-2-1 1-3-4 4 1 7h5l1-3 3-2 1 5 2-1-2-5-2 1-1-2 2-3Zm-40 0-2 5-6 3-1 3-3-4-3 1-1-2-2 7 2-3 4-1-1 4 12-1-2-1Zm-5 7 1 3h-4Zm-24-9-2 3h2v4l2-2h-2Zm8-4 2 3-2 2 2 1-2 3 2 2 4-1v-3h-3l-2-3 1-4Zm-4 0v3l2-2Zm10-3v4l2 2v-2l-2-1 2-1Zm14-3h-4l-2 4Zm-20 0v3l2-2Zm125-3h-2l1 2-2 2 3-2Zm-27-2 7 1-2-1 1-3-5 1Zm4-3 1 2-3 3v-4Zm-11 0-2 3 7 3-2-3 2-3-5 5Zm869 5 1-2 5-2-1 3 1-2 4-1-1 4 3-1h-2l-1-5-2 2-2-2-4 1Zm-1-5-4-1-2 6 4-5Zm-9-1-4 2v4h3l2-2Zm-1 0 2 3-5 2v-2Zm-29 3 1 3 4-1-3-2 2-3Zm-29-3h-3l-1 2 1 4-2-1 4-1-1-4Zm-9 0-3 2-1 2 1 2 4-1-3-2Zm-7 0-3 1-4 12 2-6 5-2 1-2Zm1 3-5 2 2-4Zm-9-2-2-1-2 1-1 5 3-1 2 1Zm-2-1 1 2-3 4-1-3Zm-17 0 2 1h-3l1 5-3-1 4-1Zm-741 7 4-6 2 1 2 5h2l2-2h-4l4-4-2-1-3 3-3-3-3 1Zm-22-7-5 5 4 3-2 3v3h2l2-3h-3l4-5-2-1 2-4Zm-6 0-4 1-2 4 1 2 4-1-2-4Zm-64 3 1 4h3l2-2-2-1v-4Zm893-7-1 3-2 1v6l3-1-2-2 1-3h2Zm-863-1-2 4-3 2 3 6 2-2-2 1v-4l3-1Zm902 0h-4l-2 5-2 1 2 1-2 7-4 4 3-1 2-4 3-12Zm-32-1-2 3-2 9 1-3 4-1v4l2-1h-2v-5l-2 1Zm-59 0-2 3-2 9 3-5 3 1-1 4h2l-4-8Zm-805 0-4 9v4l4-6 1 6 3-2 2 2 4-2h-4l2-1 1-4-3 1-3 5-2-6h-3l2-3Zm-28-18 3 3v-3Zm925-2-1 3 2 2-2-1Zm-93 0v6l5-1v-5l-2 3-3-1Zm-781 0-2 3 3 1-2-1Zm891-1-4 2v4l3 1-2 5-4 1 1-3-2 3 2 2 3-2 3-7 2 1Zm0 3-3 3-1-3Zm-9-3-2 2-2-1-1 5 6-3-1 3h2Zm-22 0-3 2v4l2 1 2-2-3-2Zm-8 0-3 3v3l2 1 2-1-4-1 5-4Zm-7 0 2 1-4 1 1 4-2-1 2 2 2-3Zm-19 0-3 3v2l3 2 2-2-3-2h2Zm-804 3 1 4h3l2-2-2 1-3-1 2-1 1-4Zm-7-1-2-2-3 3-2-3-4 1-1 6 4-5 3 1 1 4h2l2-2h-4v-2l2-2Zm-24 1 1 4 4-2h-4l2-4 2 1-1-2Zm-18 0 1 4h3l2-2-2 1-3-1 2-1 1-4Zm838-7-1 3-2 1 1 7 2-2h-3l1-3 3-2Zm-18 0-3 4-1 5 2 2 2-1-3-1v-2l3-3Zm75-2-2 3-2 9 2-3 1 2 3 1-3-3 3-3-3 2Zm-50 0-4 12 4-5v4l2 2-1-6-2-3Zm-43 0-4 12h4l2-2-3-7Zm-753 0-5 10 1 3 2-1-1-3Zm-53 0-2 1-4 11-1-2-2 2v-4l3-2-2-4v2l-4 3 2 6 3 1 2-1 4-5 1 5h2l-2-7h-3Zm-38 1 1 5h3l-3 3v5l6-3-2-1 2-2-4-3h8l-2 1 1 7h5l-4 2-1 2 2-2 1 2 1-2 1 4 2 1-2 5 5 6-3 3 2 1v5l3-2-2 1v-4l4-3-3-1 1-3-2-1 1-2-2-5h-2l-1-3h3l-3-6v6l-2-6h-4v-2l4-2-1-6-2 3h-3l-1-3-2-1-1 3-1-2Zm8-17-1 1 2 1Zm208 0 1 4 2-4 1 4 3-4v4h3l-2-1 1-2-2-2Zm745-4-2 1-2-1-2 6Zm-12 1-1 2 1 3 4-1-3-2 3-2Zm-3-1-3 5-1-4-3 4-2-4v5l4-2 1 2 3-2Zm-15 1h3l-3 1-2 3 4 1 1-2Zm-5-1-4 1-2 5 1-2 5-2 1 4Zm-13 1-1 5h6l-2-2v-4Zm2-1 2 2-4 4-1-2Zm-20 1-1 2 1 3 4-1-3-2 3-2Zm-38-1-4 2 1 4 4-2Zm-1 0 2 3-5 2v-2Zm-669-1-3 2 2 1-1 7Zm19-1-4 6v3l2 2h2l3-4-1-6Zm2 2v6l-3 3-2-2v-4l1-2Zm-10-2-3 2h4v2l-5 7 5-1-3-1 4-5Zm425-1-1 1 1 2 1-1Zm260-1-4 4 3 5h-2v-3l3-2Zm-19 0-3 4 1 6 2-1-2-2 1-3h2l-2-2Zm-12-1-4 9-2-3-1-6-5 11 6-7 2 7Zm37-1-2 3-2 9 1-3 4-1 1 4-1-6-2 1Zm-265-4 1 3-1 2Zm-254-4 2 1v2l5-3-2-2Zm-314-8-5 2-1 2 1 6h5l1-2-4 2-2-2v-4l6-2Zm-69 0-6 7 7-5Zm401-4 2 8 1-4Zm-15-6 4 2-1-2Zm-390-1-2 3 2-1 3 1 2 4 1-4-2 1-2-2 1-1Zm633-7-1 2h2Zm-626-1 1 2 4 2-4-2Zm-5-1 3 2-1-2Zm941-3-3 1v3l4 5-2 2-4-2 1 2 5-1v-3l-3-6 4 1Zm-540-4 2 2 1 11-1-7 1-5Zm-12-5 2 2 1-2Zm-343-3 2 4 2 1-2-1Zm353 0 3 1 1 2-1-4Zm253-1-1-2-2 2Zm-650 0h4l-3-2Zm13-4-5 1 1 1Zm-9-8-1 1 3 2Zm650 2 4-3 1 3 5 2-4-3-1-3Zm-253-5-1 2 1 3Zm550 1-6 3h-4l-2-1-1-4v2l-3 3v2l3 3-1 9 1 3 1-14 2-3h4Zm-944-2 5 5-1 2-3 1v2h3l-2-1 4-1v-2Zm-9-2v4h5l-1-2-1 2Zm661-9-3 1-1 3 2 5 2-5-3-1Zm-625-5-1 1 2 1Zm29-1-1 1 2 1Zm903-1-4 11-6 6 6-6Zm-833 0-4 1-1 7 1 3 6-3v-2l-2-1 2-3Zm-3 6 2-1 2 3-2 2Zm0-3 1-2 3 1Zm274-5-1-2-2 2Zm-391-2-1 2 1 2-1-2Zm19-2-1 3 2 3Zm622 2v-2l4-2-4 1Zm314-4h-2l1 6Zm-30-10-2 4 2 1 1-2 3 2-2-1Zm-544-2v3l-3 5 3-5Zm597-5-2 4-8 8 6-5Zm-604-3h2l-1-2Zm530-10-2-1-5 1 6 2Zm-54 1-1-2-2 2Zm-252 0-2-2-2 2Zm347 5 2-5 10-1-11-2-2 2 2 2Zm-90-6 8 3 3-3h5-6l-1-2Zm-808-1 4-3h-4Zm780-4v6l2 3 4-4 1 4 4-9-4 7-2-6-3 6Zm176 0-1 10 6-1-5-1 1-3 3-1-3-1 1-3 4-1Zm-12 5-2-1-5 1-4-4v-4l1 5-3 3-18 1 3-1 15 1 2 2v5l2-6h6Zm-67-8 1 4-4 4h-4l-2-4-1 6 6-2 2 4 3 1v13-13l4-5 4 2-1 6 1-3-1-6-3 1-3-2Zm-316 1-4-1-8 3 3-1 3 2h4l-2-3Zm-175-1-2 1v4l2-1Zm98-1 3 2v-2Zm17-2h5l-3-1Zm-512-5-1 1 2 1Zm512 0 5 2 4-3-5 2-2-4Zm405-9-4 11-6 4-2 4 2-2 2 3-1-3 5-6Zm2-5-2 1 1 2Zm-59 0h-2l1 2Zm-344-1v2l2 1-2 6-2 1 3-3 2 2-2-2 1-5Zm-497-4-6 11 6-4 3 3Zm-21-6 1 2h2Zm891-32-2 3 1 4-2 3 3 3v35l-3 6 2-2 1 4 1-4-1-39 3-3-3-3 2-5Zm-837-9h-4l-3 13 3-7 4-1 1-2Zm6-6-3 7v5-2l4-1v3l7-2h-3l1-4-3 5-4-7Zm11-1 2 9-2 5-3 3 4-3 1-3v-8Zm-22-1-6 3 1 2-1 2-1-2-1 4 1-3 1 10 2 2-1-10Zm-25-4 1 1 2-2Zm537-2-1-1-1 2Zm328-2-2 10 2-7 4 7 2-10-2 7Zm-351 1 2 2 1-2-2-1Zm32 0 1 1 1-2 3-1 3 3h3l-4-3h-5Zm14-2 2 2 1-2 3 4-2-5Zm-188 4 6-3 1-2-7 3Zm-355-16h-4l-2 3 1 3 3 1-3 5v-4l-3 4 3 2 3-3 2-6 1 2 2-2 1 2-3 4 4-1-2-1 2-2-2-3-2 2Zm-5 4 1-2 3 1Zm59-9-3 2 2-1 1 2-2 3 3 2-3 3-3-1 5 1 2-4-2-2 2-3Zm-7 0-4 2-2 4v4l5 1 1-4-3-1-1-2Zm-4 7 3 2-2 2-2-2Zm-8-7-4 3 2 2-1 7Zm955-3 1 2-1 8 2-2-1-2 1-5Zm-858-8-3 7 2 1v4-3l2-2Zm-136-1-2-2v3l-2-1-4 2Zm901-8 1 5 4-2h-4l2-1 1-3Zm-2-1h-3l-2 2 1 4 4-2-3 1-2-2 3-3Zm-12 0-2 5 4-4 3 4-1-5-3 1Zm-4 0-4 1-1 3 2 2 3-2h-4l4-2Zm-24 0-3 3 2 3 2-2 2 2-1-3 1-3Zm2 2-3 3v-4Zm-22-2v5l5-3 1 3-2-1 1-4-3 1Zm-4 0-1 2 2 3-2-1Zm-18 1 1 5 3-1-2 1-2-2 4-2v-2Zm-5-1-3 4 5 1-3-4h3Zm-10 0-1 5 1-2 4-1 1 4Zm-3 0-4 1-1 3 2 2v-4l1 1 2-1Zm-7 0-3 2-1 3 2 1 2-2Zm-6 1-3-1-2 2 1 4 3-1-2 1-2-2Zm-7-1-2 1-1-1-2 5Zm93 5h4l-1-5h2l-4 2 2 2Zm-4-11-3 8 4 3v-5l-2-3Zm0 6 2 3-2 2-3-1Zm-94-6-2-1-4 1 1 2-3 10 1-4 6-3Zm-3-1 2 1 1 3-2 2-3-2Zm-740-1-3-1-2 2h2l1 3-2 2 2-2 2 1-1-3Zm9-2-3 3 2 1 2-1Zm18-13h-2l2 3v6l-4 7 2-1 3-6Zm923 2v-3h3Zm-929-4-3 1-2-2 3 3-2 7-3-3 1-2-2 1-2 3 1 3-1 3 4-1 2 1 1-3h3l-1 1 1 2 2-1-2-5 3-4Zm-7 8 1 1 1-1v4l-3-1Zm9-5-3 6v-3Zm731-11 2-1 3 2 2-1-2 1-2-2Zm-740-2v2h2Zm923 0 4-1 2 3-2-3Zm-183-1 2-1 6 1-3 1-2-2Zm-13 0-3-1-2 2-1 12v-4l2-4 2 1 3-4Zm-2-1 2 2-2 4-3-2Zm64-4-4 2 4-1v4l-5 6h6l-5-1 5-6Zm-8 0-5 1 4 1-4 4 1 1-1 4 1-3 3-2-1-2Zm-16 0h-2l-3 3 1 8h3l3-4v-5Zm-1 0 2 2v6l-4 3-2-2v-3Zm-727-12 2 8-2 5-3 1 1 2 2-1 3-6v-5Zm883-4 1 2-2 2h2Zm-76-13-1 4h5l-1-4Zm-10 5 2-2-1-3-3 3Zm-56-5h-2l-2 3 2 2 2-2Zm-5 0h-4l1 4Zm68-3-3 3 1 4 2-1h-2l1-3h2l-2-1Zm-11 0-2 3 2 4-2-1 3-3-2-1Zm22-1-2 4 2 4-1-3Zm-62 0-2 4-4 2v2h5l-1-3Zm-6 7 1-2 3 1Zm-59-10-4 4-1 10 2-7h3l2-2v-3Zm0 1 2 3-5 2v-3Zm44-6-2 1-5 9-2-10 2 13Zm59-1-6 10-4-9 3 13Zm-19-1-9 18 2-1Zm102-12-2 1 2 2Zm-104-6-2-1-86 1Zm89-3 5 5-3-3 1-2-1 2Zm-90-11-4-1-2 2-1 5 2 2 5-1 1-2Zm-2 0 2 2v3l-4 3-2-2v-4Zm-12-1-7 1 3 1 1 7 1-8Zm-12 0-4 9 4-3 3 3Zm-31 0-3 1-1 7 4 1 3-4v-2Zm0 1 2 2v3l-5 2 1-7Zm-16-1-3 6 1 2 4 1 3-3v-3l-3-3Zm2 1 2 2v3l-4 3-2-2v-4Zm155-4v3h2Zm-124 0-1 12 4-5 2 4 2 1-3-4 3-7-2-2Zm2 0 4 1-2 4-4-1Zm-38-1-6 10-3-10 2 13 2-1Zm-130-31 1 4 6-3Zm-433 1 1 6v-5l7 2 1-2h62l-26-1-36 1-1-3Zm344-12v4l3-4v4l3-4 2 5-1-5-2 1Zm-218 0-1 4 3-4 1 4 1-3h3l1 4-1-5-3 1Zm201-5h-3l3 2-3 2 3 2v2l-5 1 3 1 2-2-1-4Zm-12 0-4 1-1 8 3 1 2-2 1-3Zm0 1v6l-3 3-2-2v-5l1-2Zm-208-1-4 4 1 6 4-2-1-3-3-2Zm-1 5 2 2-2 2-3-2Zm228-6-2 2v4l-2 3 3 2 2-1 1-9Zm1 6v3l-2 2-2-4Zm-3-2 1-3 3 2Zm-218-4-2 2h4v3l-5 6 5-1-3-1 4-5-1-3Zm-20 0-4 4 1 7h2l3-3v-6Zm0 1 2 2v3l-4 5-2-2 1-6Zm-125-4v3l2 1 2-1Zm674-9-1 2 1 3 4-1-3-2 2-3Zm-3 0h-4v5l4-1-3 1-2-2 1-2Zm-14 2 1 3 3-1 3 1-2-6h-2Zm5-1-3 4-1-3Zm-8-2-2 1-2-1-4 13 2-1 1-5 6-3Zm0 2-1 3-2 1-1-3Zm-12 3 4-1-1-4h2l-4 2 1 4Zm-51-5-1 2 3 3h-4 5l-2-5 2 1Zm-5 0-1 6 2-1h-2Zm26-4-4 4v5l2 2 2-2-2-2 1-3 2-1-2-1Zm6-2-2 4-1 8 1-3 4-1-1 4 10-1-2 1-2-3 3-1v-2h-2l-5 6-1-6-2 1-1-4Zm93-1-4 13 2 1 3-2 2 2 2-2 5 2-2-5 2-9-3 7h-3l-6 6-1-3Zm2 11 1-2 3 1Zm-18-11-4 13 4-5 1 5 9-1-3-2 1-3-2 1-1 3h-3v-4l-3-1Zm-43-18 1 4 5-1-4-2 2-3Zm-2-1-3-1-2 2 1 4 4-1-3 1-2-2 1-2Zm-14 2 1 3 3-1 3 1-2-6h-2Zm5-1-3 4-1-3Zm-8-2-2 1-2-1-3 13 2-6 5-2Zm1 2-4 4-1-3 2-2Zm-14 3 5-1-1-4 2 1-4 1Zm70-12-3 1-1 4-3 2 1 4-1 4-4 5 3-1 4-11 5 1v4l4-1-3 1-1-3 4-4-2-4-1 3-3 2-2-3 1-3 2 1Zm-16 0-2 4-1 9 10-2-3 2-2-2 5-3-3-1-6 6v-6Zm-89 2h4l-2 11 4-12 5 2-3 8 1 2v-2l3-3 1 5 10-1-2 1-2-3 3-1v-2h-2l-5 6-1-6-3-1 1-6Zm24-27-2 1 1 4Zm-14 0 2 4 3-4v3l3 2 2-2v-3l-2-1-2 2-1-2-3 3Zm8 0v4l-2-2Zm57-3-3 6 2 2-1-3 3-2Zm18 3-2-1-5 5-1-3 2-1-1-4-4 5-4-1-1 3 2 2 2-1 2-4 3 5 1-2 6 2-1-3Zm-13 0 1 2-2 2-1-2Zm18-5-2 1-1 4 3 3h-2Zm-67 0-2 5-3 1-1 2 2 2h4l-1-5Zm35 6 7-14-3 2-4 8-2-10-1 4Zm-56-14h-2l-5 10-2-10-1 2 3 12Zm-396 0-1 2 1 2 2-2Zm53-2-3 2v4l4 4v20l-2 1 2 4v5l1-11 1 29 1-6-2-39 4-6v-5l-2-2-2 3ZM412 44l1 2 1-1Zm11-16h3l1-3ZM698 0l1 5h3v2l1-2 1 4h-2l3-1 3 1v2l8 1-2 1h2v2l2 1v-2l2-1 2 2-3 3h4l-1 5 3 1 2-3 2 3-1 6 6-1-2 4 2 2-1-4h2l3 3 1 3-3-1 2 2 2-2 2 1 2 4-2 2 3 1 1 3 4 4-3 2 4-3 1-3 3 5 5-1 2 4h-2l-1 2 5-1-1 2 2 2 3-1 1-3 3 3 3-3 3 1-4 5 1-2 6 4 1-3 2 2h3l1 2-1-2 3-4 1 4-1 4h4v5l4 1 1-2-1 2-2-2 1-4 4-2 3 3h-4l2 2 3-4 4 3 3-1 2 2 2-3v3l2-1 3 3-1-4 4 4 8-7 3 3 4-2v-2l2 1 1-2 2 2v3l1-3 5 4 1-6 6 6 3-3 4 3-3-4h4l-1-2 2-1 3 2-1-2 2-1 4 4-2-3 3-3 2 2 1-2 3 1 3-3 2 2-1 2 3-4 1 1 1-1 1 3-1 2 3-2 1-3 5 4-3-3 3-4 5 2 3 4v-3l-4-2 2-2 5 1-1 2h4v3l3-5 1 2 4 1 1-3 3 2 3-3 3 1 3-1v-4l4 1v2l2-2 1 2-1-2 3 1v-3h2l-1-2 2-1 2 2-1 2 3 2 2 4-1-2 4-4 4 6 6 1 5-3 4 1v2l-3 2 2 2 1-4 2-1-1 6 6 8 2 1 3-5 1 3-2 4 1-2 2 2-1 2 1-3 3 1-2 2h5l1 2-2 3 3-2 2 7-3 1v2l2 1 5-2 3 2 3-1v3l-8 1 9 1-6 1v3l2 1-2 2 1 5 3-2 4 3-2 2 3 1 1 2 3-3 2 3-4 2 1 2 1-2 3 3-2 2 6 4-3 3 5-1v3h2v3l-2 3 1-2 2 2v-3l2 1v2l3 1-3 3 2-1-1 3 2-1 3 2 2 4-3 1-1 2 2 1v3l4 1-2 3-1-2 1 2-2 2 2-1-1 3 4 3v3l2 1v3l2 1-2 1v2h2v2h-2v4l4-2 2 2-3 3 2-2 3 3-3 4 2-2 2 6 2-2 2 3v4l2-1 4 3v5l-3 1-2 3h2l1-2 3 5h2l1 5h-2l4 1v4l2-1-1 3 3 2h-2l1 2h2l-2 5 5 2 2-2 3 2-3 3 4-3 5 4v3h2v2l3 3-2 1-3-3-2 3 3-1 5 2-2 1v3h-2 2l4 7 2 1-2 1 2 1 1 3-1 2 2 1-1 1 1 1-3 1 2 3-1 2-2 1v-2l-3 3v2l3 1 1-3 3 1-2 2 3 1-3 1-4 4v2l2 1-2 1v4l1-3-1 7 3-1 5 3-1 1h3l4 5-4 2v2l10-1 1 2-3 3 5 4-2 2-2-2-1 2 4 2-1 5 1 2h3l-1 2 1-2 3 3-4 4 2 1-4 5 3-3 2 2 1-3-3-2 3-335Zm417 319 1-2 2 2Zm-5-13 1-2 2 2Zm-14-19 3 1-2 1 2-1 2 2-3 3-4-4Zm-2-13v4l-2-2Zm0-24 2 3h-3Zm-18-27 2 4v3l-2 2Zm-12-19 2 1-1 4-3-3Zm-11-21 2 2-1 3-3-3Zm-9-22 4 6-2 3-4-6Zm-2-4 1 2-2 2-2-2Zm-4-12 3 2-2 2-3-2Zm-8-16 1-2 2 2Zm-26-30 2-2 3 3 1-2 4 4-3 3v-3l-3 1Zm27-4-1 6-1-4ZM820 68l1-2 5 3-3 2Zm39-4 1 2-4 3-2-3Zm-11-1 1 4-2-1Zm-80-9h5l-3 2Zm-5 1 1-2 3 1Zm195-4 2-2 2 2ZM747 38v4h-3ZM704 6l1-2 2 2ZM0 0v1401h212l6-3 2 1v2l6-1 7 1v-3l4-2 7 2 4-1-1-2-3 3-7-6 3-1 1-3 2 3-2 2 3 1-1-2 4-4h-2l-1 2-3-3-5 3-4-4 2-2 2 2-2-2 1-3 7-1-8-1 2 3-2 2-5 2 2-6-6 5h-4l3-2-2-3h4l3-3-5-3 4 4-4 1v-2l-2 1-3-2 3-1-5 1-1-4 2-1h-3l-1 2-2-4 4-1-5-3 2 3-1 2-4 2-2-3h2l-1-2-3 4-1-6h-2l2 3-4 1-5-2-3 3-2-3 9-5h-2l-3-4 2-3-6 6-2-3 2-2-1-3h-2l-3 3-2-1-2 2-3-3 3-1-4-5-5 2-1-2 2-2v-3l-6-4-2 2-3-2-2-4h4l-1-2h-2l-1 3-2 1-3-3-2 3-8-8 8-5-5-1-1 3-1-1-2 2-5-1-1-2 1-2-3-2 3-2 3 3-1-2 4-1-1-2 3-1h-2v-3l-2-2 3-3h-6l10-6 1 2 4-2 1-3 2-1 7 1-8-2-1 2h-2l-2-2 1 6-6-3 2-3-4 4-3-2-2 1-6-3 6-2 4 2-2-5 3-1 3 4v-2l-3-3 3-2 1 3h2l-1-2 3-2-8 1 1-2-3 1-5-4h-3l-5 3-1-4 2 1-2-1 1-4 1 1 1-1 1 4 5-2-2-2 2-2 3 2-1-2 3-1 1-4 3-2v-4l9 1-5-1 5-4v2l2-2 3 1-3 4 7 1-5-4 2 1-1-2 5-3 1-4-4-1 2-2-6-1-2-4-4-1 4-1 2-3-1 2-2-1v-2l-3 2h-3l-3-2v-2h-4l-2 2 1 1-3 2v-2l-3-2h3l-3-1-1 2-4-1 1-3 4-1 1 1 2-2-2-3 5-6h5l-1-2 2-1 2 3 4 2-2-4 3 1-4-2-2-5 4 2 5-2 1 2-1-2 2-2 1 1 1-2-5 2-1-2 1-2 2 1-3-3 2-2 1 2 4-5-3-2 4-1-4 1-6-5 6-2-3-1 4-1 8-6v3l3-5 2 2 10-4 3 2 1-3 4-2v-3l6-1-7 1-2-2 6-2 8 1 3-2 5 1-4-1 6-2 1-3 11 1-8 3h4l7-2 4 1 6-3 5 1 27-2 3 3-9 2-4 2 1 2 12 3h18l21-4-1-2-10-4 3-2 6 1 33-1 3 2-2 1 3-1 16 1v2l10-1 2 2 10-1 2 2 2-1 1 2 8-1 11 1 2 3 18-1 2 3 10-1 3 2-6 2-12 1 43-3 3 2-3 1 4 4-2-4 2-2 1 2 4 1-2 3h2l5-4 1 1 5-2-4 5-1 7h-18l-29 4 46-4 2 3-24 1 20 3 3 2-12 2 5-1 17 1 1-2h7l4 4-3-4 28-2 13 1 14-1 1 18-2 14-9 1-6 5 2 3 2 9 4 6-12 5 3 3 5 2 14 2 14-3 4-2 1-2-1-2-8-4 5-9 2-9-4-3-11-3-1-14 1-17 51 1 3 2-2 2 3-3 19 1-4-1 5-3 9-1-15-1 3-3 1-7-5-6 4-4 14 2h-7l-7-3 2-2 1 2 6-4 3 1 1-2 7 2 1-2 6-3 7-1v2l5-1-2 2 2-1 9 1 9-2 4 1 1 2 4-2h4l-2-1 1-3 54 1 8-2 11 2 17-1 2 1 1-1 2 5-1-1-9 3 2 2 8 2 25 1 10-2 4-3-11-3 2-3 19-2-11 1-5-3v-4l-6-2h-7l-2-2v-8h-7v9h-7l-9 3 2 3v4l-2-3-2 1-2-1-1 2-2-2-5-1-1 2 2 2-5-3-2 1v2h-8l-6-4-7 1 5 3-5-1-6 1-5-1-5-3-2-3-13 2-1-4-5 3-4-2-1-2-2 2-4-4 1 4-2-1-4 3-9-5-1-4 3-1-4-4-4 6 5 2-4 2v-2l-3-1-3-4 2-2 2 1-1-3-2 2-3-3 3-2-3-3 2-1-7-2-1-2-3-1 2-1h-2v-2h-4l-4-4-3 1-1-2 2-2 2 1-2-2 20-40v-3l3-3 52-100 4-7 4-3-2-1 17-31 1 3-1 2 1-2 1 7 2-4-2-1 4-3 4 8-3 3 3-3 4 2-4 1v3l-2-1v2l-7 5 9-6 3 3-1-4 3-5v-6l1-2 3-1-1-2 5-2 3-8 2-1-1-2 4-4v-7l3-3v-3l3-2-1-5 8-8-6 2-2-2v-4l2-2 2-9-2-6 4-7-1-7 4-7-1-3 8-17 10-29 10-39 6-52-1-58-5-31v-5l2-2-4-4-2-13-9-33-9-27-8-19 1-6-1-136-16 2-2-2-54 1-2-2 1-2-3-1 2-1-1-3-13-13-6-10-2-1 2 2 1 5-121-158-3-7-1 1-7-10 1-3-2-2v-4l3-5-1-10-5-7-9-3-8 2-4 3-3 5-1 8 3 7-1 8-4 8-6 4v3l-20 25-76 99-26 31 1-2-2 1-7 11-12 12v3l-3 4-2 1-5-1-4 1-56-1-3 1v46l-5 12-2 12-3 3-3 7-2 16-3 5 2 2-3 6 2 2-3 1 2 6-3 3v4l2 2-2 1-1 2 1 4-2 1 3 3-3 6 2-2 1 2-2 2 2 1-2 5 2 5-2 1 2 7-1 5 2 5h-2l2 8-10 40-1 10-4 6 2 3-2 7-4 39 1 44-1 3 5 44 7 32 7 22-1 3-2-3-2-9 2 8-1 3-2 1 1 2 2-1 1 4-2-1 1 7-1 2-2-2v2l2 1v8l2 1-4 1v2l3 1-4 1 3 7-3 1v4l2 4 4 2v4l-1-2h-2l1 5 3 2-2 5 3 1-3 3-1-2h-2l2 7-1 11 5 1-6 5 2-1 2 5 5-1-3 4 2-1 2 2-1 2 1 4-4-4h-4l2 1 5 10v-2l2-1v-3l4 3-6 6 4 2-3 2v5l-2 1 3-2 2 2-2 1 4 5-3 5 8 6 5 1-3 3 3 2 1-2 1 2h3l4 3 1-3 2 3-2 3v4h2l1-4 2 5-2 1 2-1v3h-5l14 1v-6l3 3-1 2h2l-2-3 2-1-2-1 1-3-1-5 4 5-1-4 2-3 3 1 4 4-5-5 2-3 2 2-1 1h3l1 3 2 1-2 2 5 4 4 1 2 3h2l3 3 39 76 18 32 5 14-2-3h-3v2l-3 1-1 6-2 1-2-2 1 2 3-1 2 3-5 3h3l3 2 3 5-2 2h-3l-4-2 2-2h-2l-1 2-1-3-2 2 4 2-1 1 1 1-2 1-4-2-1-2 1-2-4-2 1 2 3 1-8 2-1-4 3 1h-2v-2l-2 1-2 3h2l-1 2 3 2-8 6 1 3-2 1-3-5-2 5h-3l-1 2-5-1 3 2-2 1v2l2 1v3l2 1-2 2-2-1v-2h-4l6 3-3 7-1-6-1 4-2 1-5-1 4 2-6 2-2-2-3 4-1-2-1 3-2 1 4 2h-3l-2 2 1 2-5-2v3l2 1 5-1 3 2-2 2-4-2-6 1-3-1 2-3-8 5h-12l-6 3h-4l-1-2-3-1 2 4-4 1 1-2-3 3-3-2-3 3-3-1 2-2-8 1-4-2-2 2-1-2 1-4-15-3-1-8h-6l-1 9-14 2 2 2-2 1-3-2 1 2-4 1-1-3-3 2-4-3-2 2 3 1-4 3-5-3-1 2h3l-2 2-6 1-8-5 3-1 3 3 5-1-2-2-1 2-3-2v-2l-1 2-6-1v-2l-4-1 3 2-4 1-3-2-6-1 1-5 3 2-2 1 1 1 3-3-1-4-5-6-6-3v-4l-3-2 3-2-4-2 2-1-2-2-3 4-2-3 3-2-1-2-3-2h-3l-2-5-6 2-3-3 2-1 2 2 2-1v-3l-4-1-3-4h3l2 3 1-2-7-2v2l-3-1 4-5-6-1-1-3 2-2-3 2-6-4 2-2h4l-1-3 2-2-3-3h6v-2l-3 1-3-3 1-2-2 3 2 2-1 1 1 2 2 1-2 2-6-6 1-3-1-2-3 2v-5l2 1v-3l4 1-1-2-2 1-1-1-2 2-1-7 2-3 1 2-1-3-1 2-1-28 2-2 2 2-1-4-1 2-2-2v-55l3-3v-4l-3 1 1 2-4 3-53-1-3-7-2 4-3-3v-3 2l-3 3-3-4 2-1-2-2h-2l3 2-3 1-6-6 3-3-2 2-1-3-2 1-2-4-3-1v-3h4l5 6h3l1 4h3l-2-1 1-2 4-2-3 1-6-8-2 2v-4l-3-1 3-2 2 1 2-2 1 2-2 2h2l1-2-3-3 2-4-2 1-2-2 5-2 1-2-1-3-4 1-1-2 2-1 1-6-2-1-1 1-1-5v3l-2-1-2 2-2-3 2-3 1 2-3-5 2 3-2 3-2 1-1-3-2-1-1 2-3-3 3-1-4 1-3-3v-4l2-2 2 6 4-1-1-6-4 2-6-3 6-3 2 2-1-4 2 2 1-1 1 3 1-2 3 4 4-1 2-5-3-2 2-2 2 1-2-2 3-1-2-4 1-5 2 2h3l3-5 3 1 2 4 4-2h-5l4-2-2-3-2 2-5-1-2-2 1 4-2 3-1-6-4 5-1-5-2 5-3 1v-3l2-2-1-5-4 6v-3l-5 2v-2l-3 6v-4l-4 4v-5l-2 2v-3l-2-2 2-2 2 2-3-6 3-3 5 2-1-2h-5l-3 2-2-3 3-1 1-2h3v2l3-4 2 2 1-6 3-3 1 2-1 3 9-2-2 2-2-3 4-3h-2l-4 5-1-5-3 1-2-1-2 7-1-2h-4l4-2-1-3h-2l-2 3-1-3-4 1 1 5-7-7 2-5-2 1-2 8-4 1 1-4-4-1 4-1 1-3 2 1-1-5 4-2 1-7 6-6 1 5 2-1 4 1 2-2-3-3h3v-2h-2l-2 3 2 2-6-1 1-3-3 1-1-7 3-1-2 2-2-2v2l-7 2 3 1-4 4 1 4 4 1h-7l-3 4-1-2-3 1 1-2-2 1v-2l-3 2 1-4-2-1 2-2 2 1-3-3 2-2h3l-2 1v-2l-4-1-1-3-1 1-2-2 3-2 3 3 2-1 1 1 5-4-2-1 1-4 5 7-1-2 3-2 6-1-1 1 1 2-1-5-6 3-2-5 4 1 4-3-2 1-1-2-6-1 148-2-114-1 5-2-2 1-2-1-2-4h-5l1-5 5-1 3 2v6l2-7 2-1v8l-1-5-1 5 8-1 1-2-1-5v5l-4 1v-6l-7-1-3 2-4-1-2 2 1 6 5 1-3 2 3-1v3l-31-1 4-1-1-3 3-7 3 1 1 6 1-3 4 4-2-5 2-2-1-2-5-2 3-1-2-1v-2l-5 1-1-2-2 4 7 1h-9l1-3h-5l-2-3v-4l-2-2 1-3h3v-2l-5 3-1-2 4-2v-3l-1 2-2-3 5-6h3l-1-4 2-4v-4l-4-3-2-4-3 2 2 1v3h-3l4 2v-2h3l2 3-4 3-6-1-1-2h-2l-1-3 2-5 1 2-4-4 3-1 3 2v-4l-1 2-5-6 3-3h2l2 3-1-4h2l-3-4 3-3 1-5 5-2 2-3 2 4 3-1 3 1v-2l-2-1 2-4 1 3 1-2 1 6 3-2h-3l2-4h2l-1-2 1-3-3 3-2-3-1 5-1-1-4 1-3 3-2-3 1-3-1-2-2 5-3-1-4 13-1-3-2 4-1-2-4-2-4 1 1 2h-3l-1-4 4-1-5-3 3-2 2 3 2-1 3 1v-2l-2 2-2-3 1-5-5-6 5-2v-3h2l3 3 1-1 1 2-1-2 2-2-1-2 4 1-1-2 2-2 1 2 2-2-4-1 7-1-1-3 1-3-3-1-3 3v4l-2 4-3-1 2-1-4-1-1-2 1-4-1-4 1 1 2-2-6-1 2-1-1-7 4-3 2 1 5-3-2-1-1 2-2-3 2-2-2-1 2-1-1-1-1 2-1-3-1 2v-4l4 1 2-2 1 3-1 5 3-4 2 3 3-4 1 5 3-2 2 2 4-2-2-1 2-1-1-3-3 1-1 3h-3l-1-4-3 2-6-3 1-5-2-6 5-3 3 2-4 5 2 4 2-3-2-3h2v-3l1 1 2-2-3-2 2-2-2 1-2-1-3 4-2-2 3-2-1-2 7-1h-3l-2-2 4-11-4 4v6l-4 2v2l3 1-5 4-2-3-3-1-1 1-1-2 4-4-2-3-3 1-1-1-3 2-2-2 3-1-3-4 2-1 3 2-3-6 2-3 1 2-3-4 2-2 4 5-1 5 1-2 2 2-2-2 1-1-1-7 5-6 1 2-1 2 3 2-1 2 4-1-4-5 1-3 3-2h-4l3-6-2-1-3 2-3-3 1-2h2l-3-1-5 2-5-7 2-1 3 4-1-5 3-2h-2l-1 2-3-3 3-1-1-2-1 2v-6l2-2 2 4-3-6-2-1 3-5v-4l3 3v3l4-1-2-1v-2l-2 1-3-4 2-2 1 2 1-1-3-3 2-6-2-2 1-4 2 1 1 4 1-2 2 2-3-3 3-7-1-2-1 2-3-7-2-1-2 3-2-2 1-1-1-2 4-2v1l-4-9 1-2 4 4v2l-2-9 4 1v-3l2 1 1 3 1-6 2 3-3 8 7 1-3 2 2 1v2h2l-1-2 2-2 2 4 4-4 1-4 2 7v44l41-1 9 3 1 3 3-4 9-2 39 1 2-2-1-38 2-6-1-5 2-1-2-3-1-8-1-42-36 1-14-4-1-3 1-5-3 3 1 5-12-1 1 2 2-1 3 1-3 2-4 1-25-1-1-3 3 1-1-2 4-2 1 4 1-3-1-2-7-2-1-2 1-3 5 4h2l-2-2h5l2-3 2 1 1 3h2-2l-1-4-3-3 2-3-4-4 1-3 3 4h2l2 2-2 3 4-5-3 1-3-3 1-1-1-2-4-2h2l1-2 3 4 3-4v-3l1 1 2-2-1-2 2-2 3 1-4-4 1-1-1-2h2l-2-2-3 4-4-5 4 1 1-2h3l3 2-5-4v-3l4 1v-2h-3l-3 2-5-4-2 2h2l1-2 3 6-2 1-3-2-4 3-7-5 4-1v2h2l1-2-2-3 2-2 1 2 3-1-1-2 4-5 4 1-1-2 3-3h2l2 4-2 1v2l3 2-5 2-2-1 1-1-3-4-3 4 1 2 5 2 1-2 2 2 1-1 2 1 1 5-1-8 6 3-2 2 4-3 3 2 3-1-1-2 2-2 5 2v-4l2-2 1 3 1-2-2-1 4-3 1-3-4-3 1-5-2 5-5 3v6l-3 2v-6h1l-3-1-3-9 4-2-4 1-3-4 1-5-2-2h2l-1-2h2l-1-4 2-5 1 3 3 1-4 8h2v-5l2-3 4 7 1-2 1 2 1-2-1-2h2v-2l-2 1-3-3 1-2-1 2-2-5h2l-3-2 3-3 1 2 3-4 2 2v-3l2 1 3-1-2-1-1 2h-4l-3-3v-3h-2l1-2-1-2 3-3 2 1 1-2-1-5 3-5 3 3 6-12 1 5 3-2-2-1 1-1-1-2-3 1v-3l2-1 4 3 2 5 5 3 1 2-2 2 2-1v2l-1-5 1-7 2 9 3 3-3 1-1 2 3 1 1-4 1 4 2 1 1 6 2-5h2l-5-9-3-2 5 5-3 2-3-3-1-11 2-3v5l2 4 7-1 6 3-2 4 2 1 2-7h2l3-4-2-2-10 1-1 3h-3l3-10-3 6-3-1 2-8 3-1v-3h4l2 2 2-1 3 2 1-3 1 2 3-1-3-3 1-3h2l-2-1 2-2 2 1-3-2 1-7-3-1 3-7 1 4 4-2-1 1 1 3-2 1v6l2 1 2-2-2 1v-4l6 1 1-2 5 7-3 2 1 3h2l5-10 3 4h5v6l1-5 6-4v-3h2l-1-1-6 1-2 5-2-2 1-2-4-1-2-3 2-3-1-2 4-1-1-2 3-2-1-2-2 3-2-2 3-3h3l2-2v-3l3-1-2-2-2 5h-3l4-8-1-3 1-4 2 2 1-2 3 4v-3l2-2 3 3-2-2 1-2-1-5 3 2v3h3v-3h3v3l-3 2 1 4-1-2h2l2-7 2-1 2-6h2l-2-2h4l1 2 2-1-5-2 6-3-1-2 2-2-2-1 3-1 1 2h3l2-4 1 4 3 2 2-2-1-2h2v-3l2 2 5-3 3-5 4 1-5-5 4-1 1-2 3 3v3l-1-5 5-1-2 4 3-3 3 5-1-5-4-3-2-4 3-3 2 6 2 1-2-2 3-1 3 2-2-5-3-1 2-2h4-2l-3-6 4 3 3-3 2 3v-3l-4-3 2-1 4 2-1-6h2l1-2 3 5-1-6 5-5-4-2 2-1-2-3h4l1 4 2-3-4-4 6-4 1 2-1-3 2-2-1-2h2v-2l2 1 2-1 2-4 2 2-1 2 5 2 2-1 1 2 1-1-2-1 2-2 2 2 2-1 4 4-4-4-3-1 1-2-1-2 2-2 2 5 2-1-5-5-2 3-2-2 5-4 4 1v-3l5 5 3 1-2 3 1-2h2l-8-7 2-2 4 3 1-2 2 2-2 2h3l3-5 1 2h2l-2-5h4v-9l-3-3 2-8-1-1h3v4l3-5-3-5 4 3 5-1v3h-4l1 2h4l-3-1 4-1v-2l3-2v2l1-2-4-3 6-1 2-4 2 1 2-1-2 1-3-2 2-2 5 1-1-2-3-1 4-1-1-5 2-1 3 2-2-5 5-5-2-2v4l-6 5-2-2 3-1-3-2 4-11 3-1 3 2-3-4 3-3 1 4 5-5h3v-3l3-3 2 2-3 2h3l1 2 4-2 2 1-3 3h3l2-3h2v-3l-2-1-1-3v-8l3-3 4 2-3-2 3-2-1-3 2 1-2-1 1-6 2 2-1 3 2-1 1 2 2-1-1-5 4-4 1 2 1-1-2-1 9-10-3 2-2-2 1-4 2-2 2 1 2-1-1-3 2-2 2 4 2-2-2-2 2-2h2v2l4-8 1 2-1-2 2-3 5-3 1-3 2 1V0h5-8l-2 4-2-2 2-2Zm218 1397 4-1v3Zm21-3-2 2-3-1-6 4-5-3 3-2 3 2 4-3Zm-10-3h2l1 3-4-1Zm3-5 3 2 1 5-4-2-1-3Zm-6 0 3 3-2 2Zm-16 1 1-2 4 1-2 2Zm12-6-3 3-6-1 5-3Zm-9-3h5l-3 2Zm-7-4 2 1-1 3-2-2Zm-11-12-5 4h-3l-2-3h3l2-3Zm-18 0 3-2 5 2-2 2h-4Zm0-4 1-2 2 2Zm-12-15 2-1 1 4Zm2 3-4 2-3-1 3-2 1-3Zm-13-11 2 6-2 1Zm-15 1 1-2 2 2Zm-7 0 2-2 2 2Zm12-5 5 3-1 2h-3l-2-3Zm-2-2 2 2-1 2-5 2-2-3Zm-5-3 1 3-3 3-1-4Zm-10-2 1-2 2 2Zm5-6 3 1-2 1 2 2 1-1v3l-4 1Zm-5-1 2-2 3 3Zm14-3v2l-3 2-2-2Zm-15-2 1 4-2-2Zm7 1 1-2 2 2Zm3-4 2-1 2 1v4l-2-2-2 1Zm-5-4 1 4-2-2Zm11-2-5-2 5-1Zm-2-18 2 1-1 3-2-2Zm0-18 2 2-3 1-2-2Zm9-9 3 4-3 2-1-3-2-1Zm12-2 2-2 3 1-2 2Zm-16-9 2 1 3-2 4 1 1 2-1 4-3-4Zm405-3 6-1-1-3 2-2h2l3 3-1 2 7 1-8 2Zm6-9-3 3-1-2Zm-425-3h5l-1 4Zm9-16 2 5-2-1Zm-1-3 3-2h4l2 1v3h-6Zm430-13 32-1 7 2-31 1Zm-59 1 7-2 27 1-16 2Zm-359-1 1-2 2 2Zm0-1 1 2-2 1-2-2Zm405-3v5l-3-1 2-1Zm-57 3 8-6 43 1-3 2-3-1-10 1 2 1-9 2-1-2-3 2-18 1Zm118 0-6 1-16-3-16 2-1-2-8 1-2-2-1 2-1-1-3 2 5 1h-9v-3l3-3 48-2 2 3h3Zm-118-9 1-2 2 2Zm-8-4h5l-2 3Zm135-1-3 5-2-5Zm-122 3 7-4 9 4-4 1 5 1 14-1 20 2h-49l4-2Zm108 1-1 2-14 1-34-3h34l-14-1 3-1v-2h2l1-3 10-1 12 4Zm-142-10-7 2-20 1-2-2 27-3Zm21-2 3-1 4 2-5 1Zm134-3 2 4-2 3-7 1-4 5-5-4 1-1-1-1 11-2-13-1 5-1 5-3Zm62-5 1-2h3l6 4h-5Zm-342 0 5-2h13l2 2Zm-143-1 6 2-3-1-1 1Zm520-4 3 3-4-1Zm-7 2 1-2h3l2 2Zm-383-1 3-2h3v3l-2 1Zm470-2h20l-11 2Zm-504-1-6 2-15-1 14-2Zm-78 0 2-2 2 2Zm-7-1 1-2 2 2Zm463-9 2-1 2 3-2 2Zm9 0 2-2 2 2Zm-479-4 5 3-3 1-2-1Zm170 0 3-3 7 1Zm-166-7v4l-2-2Zm467-1v3l-3 2-2-4Zm-14-4 2-2 5 2-2 2Zm-30-2 1 2-1 2-4 1 2-2-1-1Zm31-2 1 2-2 2-1-2Zm-468 1 2-2 2 2Zm10-2 1 2-2 1-2-2Zm440-1 1-2 2 2Zm-6-2 2 2-3 1-1 4 2 1h-5v-3l-2-1 3-3Zm-240 0 1-2 3 2Zm-3-2v3h-4Zm228-2 4 4-5 2-1-4 2 1Zm-202-1v4l-2-2Zm-226 3v-3l3 1Zm432-4 4 4h-5Zm-438-2h3l1 2-2 2Zm222-1 1 3-2 1-1 3-3-5 2-2 2 2Zm4-3 1 3-1 2-3-3Zm10-1 1 5h-4l-1-2 3-1Zm0-4 7 1-5 1Zm-14 1 4-2 4 2-6 2Zm207-4-1 4h-3v-3Zm0-2h4l-2 2Zm-163 0-1 2-3-1Zm-20-2 2 1v4l-4-3Zm-265-1v4l-3-1Zm434 0 1-2 2 2Zm-159-2 2 7-3-4Zm163 1 5-2v3Zm-177-2 2-2 6 4-5 2Zm182-2-2 2h-4l4-4Zm-162-2 2-1 2 2-2 1Zm-296 0h7l-4 2Zm447-2 2 2-2 2Zm-171 0 1 1 1-1-1 4-2-2Zm177-1 3 3-4-1Zm-158-1h5l-3 2Zm-21 1 1-2 3 2Zm10-4 5 13-6-10Zm174-1 2 1v3l-3-1Zm-2 2-5 2-3-1 5-3Zm-14-3 2 3h-3Zm-143 1 3-1 2 2-4 3 1-3Zm-296-2 1 4-2-2Zm291 0 1-2 3 2Zm-281-2v6l-3-3Zm287-1v3l-3-1Zm5-1 3-1 2 2-3 1Zm149-2v6l-2-2Zm-154 1 2-2 3 1Zm150-3 1 5-1 3-3 2-2-2 3-3-1-2Zm-132 0v4l-2-2Zm-11-2 1-2 4 3-3 1Zm135-2 2-2 3 3Zm-142-2v4l-2-2Zm-313-2 2 1-1 3-2-2Zm337 0 1-2 2 2Zm-5 1 4-2v4Zm-324-4 4 7-2 3v-2l-4 1-1-2 2-1-1-3Zm313-2-3 3-2-1-3 1-2-2 2-2 5 1 2-2Zm-306-3 1-2 2 2Zm-28-1 1-2 2 2Zm350-7h3l1 6-4-3Zm-360-3 1 4-2-2Zm-4-1 2-1 2 2-2 1Zm11-3v4l-2-2Zm-8-1 1 4-2-2Zm20 5-3-3 2-1 2 1Zm-6-6 3 4v4l-3 5-2-3-3 3-5-5h6l2-2-1-3Zm-13 2 1-2 2 2Zm-8-1 2-1 2 2-2 1Zm374 0 2-2 3 3Zm-351-4 1 5-2-2Zm-3-1 2 3-4 4-2-3Zm9-1 3 6-1 3-3-5Zm351-1 1 2-2 2-1-2Zm-388-1v6l-2-3Zm39-1 16 1v9l2-8-1-1h3l-1 51-1-31-2 2v-3l-3 6-1-3 1-5-4 9-5-9 4 11-3 4-4-2-2-5-2 1-2-3h2v-3l-4 2-2-2 3-4 2-1 2 1 3-5 2 3 3-8 2 1v2l2-5 2 1-1-2 3 1-7-3 2 3-3 1-2-4-2 3v5l-3-8Zm345-1 3 3-5 6-2-6h3Zm-358 2 3-2 5 2 1-2 2 3-4 6-5-5h4Zm-22 0 1-2 8 4h-7Zm382-4 3 3h-4Zm29 0 1-2 2 2Zm-408-3 1 4-3 1-2-2Zm-14 0 2-1 1 4Zm393-1 2-2 2 2Zm-380-2 1-2h3l-1 2Zm17-5 3 3-1 3-3-1-1-2Zm390-4 4-2 5 3-1 8-2-2 1-5-3-1-1 1Zm-432 0 1-2 2 2Zm427-2v-3l6 1Zm-427-2 2-1 1 4Zm403-1h4l-2 2Zm18-2 1 1 1-1v3l-3-1Zm-428 0 2-1 1 4Zm11-3h2l1 3-1 3-4-4Zm432 0 1-2 2 2Zm-422-2 2 3v3l-4-4Zm397 0 1-2 2 2Zm9-2-4 1-1 2-3-3 5-2Zm-410-2 1 3-3 3-1-2Zm6-1 2 3-3 2-2-2Zm395-1 3 2-3 3Zm-6-1 4-2v3Zm-397-3 2-1 2 2-2 1Zm395-5 1 2 2-1 2 2-3 3-3-3Zm-400 1 1-1-1-1h3Zm3-9v3l-3-1Zm4-1v3l-3-1Zm5 0h5l-1 51-2-21 1-29Zm62-1v53l-2-6 1-3-2 1v9h-15l-3-2 2-10-2 10-3 2-6-1-2 3-1-3 2-3 2 1-4-4 1-3-2-4-2-1-3 3h-5l8-9h3v2l3 1-3-3 1-4 15-12 5 6-3 10v-2l5-5-1-3 4-9-5 9-6-8 16-16 1 2-3 5h3Zm-55 41v-7l2-1 2 2-2 1 2-1 1 1 1-2-3-1-1-3 8-6h4l-2 1-5-1-2-3-4-1 2 1-1 3 2 2-5 7 1-15 6 1 2-1-2 1-2-1 3-2-2-1-2-5-2 2 2 1-1 2h-3v-14l2-2 2 7v-3l4 5-2-3-1-6 10 2-4-2h-6l-3-2h53l-17 18-10-8 9 8-15 15-7-11 6 12-3 4h-3l-5 8-2 1v-2h-2v-4Zm-17-43 3-2 4 1-4 2Zm11-6v3l-8-1Zm-19 2 3-2 3 2Zm22-3 1 2-2 2-1-2Zm-15 0 3 3h-4Zm10-2 1 2-2 2-1-2Zm409-1h4l-2 2Zm-419-3 3 2-2 2-2-2Zm401-1v4l-2 1-1-2Zm15-1 4 4-2 7-6 2 1 2-2 2-2-1 1-3-2-7 4 2-1-3h3v2Zm-422 0 4 4-2 1-3-3Zm399 0h6l-4 3Zm-395-1 2 3h-3Zm431-1h3l1 2h-3Zm-8 0-2 3-2-2Zm-173 2 3-3 1 2h4l-2 2Zm-255-4 1-2 4 3-3 1Zm493-1 1-2 2 2Zm-235-2 1 3-4 1Zm205-5 1-2 2 2Zm-207-2 3 2-3 1-1 2-2-2Zm-250 0 2 2-2 1 3 1-2 2-2-1-1-3Zm264 0-1 2h-4Zm174-2 1 38-2 5-4-3v2l-2-1-3 2 6-1 2 2v3l3-1-4 16 1-6-5 2v3l-3-1-1 4-5 1-2-2 1-2-1-4-5-2v-2l-3 2 1-4-2-2-3 2-2-7 2-2 1 2 1-1-2-1 2-3 1 2 1-2h2l1-2-2-1h4l1 2-2 1 3 3-3 1-2-2-3 5 3-2 3 3 2-2-2-1 3-3 3 1v-2l-4-2v-4h-3l-1-3h2l1-3h2l1 2 1-1-2-1-1-3 2-2 3-1v3h5v-2h-3l1-2-3 1 2-4 3 1 1-2 2 2-3 2 3-1 3 3 1-1v3-3l-1 1-1-2Zm-165 0 2 3 2-1-1 5-4-5Zm97-2 2 1v3l-2 1-3-3Zm-77 0-1 1 1 1-6 2-1-2 2-2 2 1-2-1 3-1Zm78-2 3-2 3 2-2 2Zm-9-2 2 3-1-1-1 1Zm-87 0 12 21h-3l-2-4h-3l-4-3 3-3 2 2-6-11Zm-279 0v3l-3-1Zm370 2v-3l3 1Zm-72-4 3 2-3 3Zm-9 0 2-1 2 2-2 1Zm81-3 1 1 1-1v3l-3-1Zm-371 0 2 3h-3Zm363-1v3l-3-1Zm-363 1h5l1 3h-3v-2l-1 2Zm313-2v4h-4Zm68-1v3l-4-1Zm-55-2 2 2-3 3-2-2Zm-320 2 1-2 2 2Zm-6-2 1 4-3 3-3-2Zm-4 0-1 5-1-3Zm-36 2 1-2 2 2Zm481-3 3 3-2 2Zm-111 1h4l-2 2Zm-361-1 1 2-2 2-1-2Zm334 9h5l1 2-2 3 2-1 2 1-1-2 1-3 3 1 1 2-1 2 2 1-2 1h2v2l3-3 3 3-2-4-3 2-2-3v-3l2-3 1 3h2l-1-2 3-2v2l3-1 1 3 2 1-2 2 1 1-2 1-1-5-1 3 3 3 1-2-1-1 6-3-1-5 2-2 3 3h2l1-2-2-2 6-1 1 3h5v-5h2l3 2 2 7-1-4 2-1 1 2h4l-2 1 2 4 3-3 5 2-4 3-2-1-6 3 5-1 3 3 1-2h2l3 3-3 3 2-2 10 2-4-1v-3h5l1-2 1 5 2 1 2-1 4 2 2 4-2 2 4-1 4 1-2 1 1 2-2 2-1-2h-2 2l2 4h-2v2l4 2h-4v2l2 2h3l-2-3 2-2 2 5h4v-4l3 1-2 1 2 3-4 1v2l-3 1-1-3-1 4 6 1 1 3 1-5 5 2-2 1v2l2 1 2-2v4l-2 1-15-3 15 4-4 1-1 2-1-2h-3l-2 4-1-1-4 3h2l2-3 2 3-2 4 7 4-3 4 4-1v3h-3 3l3-2 2 6-11-3 1 2-1 4h-2l-1 3-1-2-1 2 3 1-1 1 2 2v3l5 5-3 3-3-1v-5l-3-1 1 7 2-1 2 2-4 4-2-3 3 6-1 4-2-1v3l3-3h2l3 3-1 4-1-2-4-1-3 2-1-2 1 3-1 3 5 8-2 2-3-6-2 1 3 1 1 2-3 3 1 1-2 1-1-2-3 3-2-3 1 5-2 1-4-1v-3h-2l2 3-3 2-2-2v-3l10-5-3-1-1 2-1-2-2 1-3-3-2 3-5 1-3 3 9 1-3 3h-3l-2 4-4 3 2-1 1 2-4 1 1 2 3 1-4 3v-2 2l3 1-4 5-3-3-11-22-3-2-8-19h-2v-3l-2-1v-2l-5-7v-3l-3-3 1-1-4-5 1-1-9-13-1-6-2-4-2-1-1-5-6-12h-2l1-2-2-1v-6l8 5-7-4-5-6 10-2-3 1-2-2 5-2-8 4-1-2-2 1-1-2h-2l-2-4h2l-1-5 3-1v2l2 1 2-2-2-2 5-1-1-2h-3l4-2ZM88 930l1 4-1 2-2-2Zm342-1 2 2-1 5-3-3Zm-377 0 2-1 2 2-2 1Zm572-2 1 4-2-2Zm-556 3-3 3 1 3-2-1-1-4-6 1-1-2 3-2 6 2v-3Zm10-8 1-2 3 1Zm668 8 2 6 2-2 1 3-11 23-5 7-4-1 4 1v2l-83 157-2-1-1 2-2-4-1 2-1-2-2 4 3 1-3 3-4-4-4 1-2-1-2-4-4-1-3 2-1-5h2l4-5h4l-4-4h-4 3l3 2-8 7-1-4h2l-1-2-4-1 4-3-1-2 2-2 1 2h2l-9-5 2-2 2 1-1-6 2-2-5 4-4 1-2-2 4-1 3-3h-3l1-2-3-2 3-1 1-2-6 2 1-3-2-3h2l2-6-3 2-1-2 2 3-6 2 2-3-2-1-5 3 2 1-2 5-2-2 1-2-2 5-3 3v-9h3l-1-4 3 1 2-2v-3h-3l3-3h-3v3l-4 1-1 2 1 3-1 2-3 1-2 17v-80l1 1 2-1-4-1 1-25-1-1v-30l3-3v-6l-2 8-2-19 2-4 3 3-2 1h3l1 5 3-4 2 2v-2l2-1 3 3h2l-4-4 7-3 6 2 2-2 3 3-3-3 1-2-1 2-2-4h6l14 7-12-6v-4l1 2 3-3 4 3 2-1 2 1v-2l2-1 2 1 2-3h2l3 3 2-2-2-1 3-1v-3l2 1v2h2l2-3 3 1 5-2v-3l3 2 6-2 2 3 5-4 1 2 2-2v2l2-1 1 3 3-3 3 3 6-3 1 2 3-1 2 2 5-1 2 4 1-4 2 4v4l1-6 2 3 5-1 3 1 3-3 4 2 3 4v3l-2 2h2v-5l2-1 3 3 1 4Zm-172-13 2 7-1 2-2-6Zm-525-4 1-2 2 2Zm-2-4 1 3-2 4-1-4Zm536-4 2 2-1 7-3-1 2-2-4-2Zm-543 3 2-3 3 4Zm19-3-3 3-1-2Zm-9 0-2 5-2-2Zm533 0 1-2 2 2Zm5-2-1 6-2-5Zm-546 1 2-2 3 3-2-1-2 2Zm43-4-4 3v-3Zm499-1 2-1 2 2-2 1Zm-8-1v5l-2-2Zm4-1 4 4h-3l-2 2Zm-517-2 2 1-2 2-2-1Zm9 1-2 2-2-2Zm5-3 2 3-2 1-2-2Zm499-3 4 3-2 2-2-1Zm-505 0v4l-2-2Zm-9 0 1 4-1-1-3 2v-3Zm21 0h4v3l-2 1Zm452-1 1-2 3 2Zm38-3 3 10-2 2-3-1v-3l2-1-2-3Zm14-1 2 3-1 4-2-4Zm-11-1 3 5 2 1 1-2 1 3 2-2 1 3-3 3-8-7Zm-489 3-4 2-1-2h-4l5-3Zm-29-5h5l2 4 2-2 2 2 1-2 2 2h5l-2 2h-3l2 2h-3l-2 2-2-2 2-2-5 4-2-3-3 1v-4l2-1v-2h-3Zm-6 1 1-2 2 2Zm19 0 3-3h4l-1 6-1-2-3 1Zm-18-2h4l-1 3Zm-3-1v6l-2-2Zm10 0v-3l3 1Zm241-8 2 2-3 3-1-3Zm-246 3-4 4-3-2-1 2-1-3 2-2 3 2v-3Zm527-6 2 4v7l-1 2-4 1 2-5-1-6Zm-527 1 1-2 2 2Zm3-8 3 2-2 2-2-2Zm241 0h4l-1 3Zm-236-2-2 2-4-1Zm516-2 1 3 3 2-3 1-2-2Zm-533 0v3l-5-1Zm12 2h-2l2 2-3 1-1-2h-4l6-4Zm529-5 2 3-1 3-2-3Zm-3 0 2 2v4l3 3v2l-3 2 3 2-2 9-3-5 2-1-2-1-1-4 1-4 2 2v-3l-3-3Zm-521 0 1 3 6 2-2 2h-3l-3-3Zm-25-1 2 2-3 2-1-2Zm541-3-1 5-1-3Zm9-2v4l-2-2Zm-541-2v4l-5-1Zm-8-4 3 3-5 2Zm3 3 1-4 4 2Zm539-7 2 2 2-1 1 5 2 2-3 3-2-1-1 2-2-4Zm-7-1 1 4-2 1 1 2 1-3 3 6-2 3 1 9 3 4v3l-3-1-3 3-2-3 1-11 1 2 1-4-2-1 1-2-7-2h2l-1-2 1-3 2 4-1-4 2-4Zm191-3-3 2-5-1 5-2Zm-176 0-1 12-3-11Zm-212 0h113l-8 2-39-1-53 1Zm222 0 58-2 94 2-13 2-29-1-93 1Zm-565-5h4l-2 2Zm24-2-2 6-2-3Zm523-4 1 1 1-1-1 7Zm5-4 3 3-1 5 1 2-5 7h-4l5-6v-5l-2-2 1-3 2 3-1-2Zm-5 0 2 2-1 3Zm3-4 1 2-2 2Zm-549-2v3h-4Zm1-2 1-2 2 2Zm548-13v3l-2 1v-3Zm-545-2h3l1 2 4 2-3 1 2 1-5 1Zm8-3v4l-4-1 3-1Zm-6 2 1-2 2 2Zm-4-2v5l-2-2Zm550-1v14l-3-11Zm-5-1-2 6 1-3-1-1Zm-520-1 2 2-2 2-2-2Zm-14-4 2 2-4 2v-3Zm-7-3 2 3-7 7-2-2 2-1-1-2 2-2 1 2Zm-2 0 1 2-2 2-1-2Zm-12 0 4-2v3Zm12-4 2 1-1 3-2-2Zm-5-2 2 2v3l2 1-2 2-3-3 1-2-2-2Zm-5-2 2 3-2 2Zm6-8 2-2 2 2Zm3-2 1-2 2 2Zm-21-9 1 4-2-2Zm29 1 1-2 2 2Zm-3-3 3 4-2 2-3-4Zm0 0 1-2h3l1 2-3 2ZM7 731l1-2 2 2Zm31-3 3 1-2 3-3-2Zm-1-4 2 2-2 2-2-2Zm429 0h10l-5 2h-3Zm-3 1 1-2 2 2Zm-431 0 1-2 2 2Zm585-8 6 2-2 1Zm9-1 1-2 3 2Zm-604-3 4 4-3 3-3-3 3-1-2-1Zm34-2 1 2-3 3-1-2Zm-8 0 1 3-4 1Zm-24 1-5-1 3-1Zm428-4h32l-12 2Zm161 0 1-2 22 2Zm-125 0 1-2 4 2Zm-459-2 2 4-4 3-1-4 2 1-1-3Zm-2-5-2 4-2-2 1-2Zm11-7v4l-3-2-5 2-1-2 2-2Zm-7-5 2-2 3 5-3-1-1 1Zm420-5-1 4-1-2Zm-417-9 1 2-2 2-2-2Zm-1-6-1 3-2-2Zm634-1 1-2 2 2Zm-218-3 1 4-2-2Zm-15-2h3l-1 4Zm13-2 1 1 1-1v3l-3-1Zm-8 0 2 1-1 3-2-2Zm-409 0 3 3-4 1Zm2 0 2-1 2 2-2 2Zm647-2 1 4-2-2Zm-650-1 2-1 1 4Zm414-1 1-2 2 2Zm8-2-1 3-2-2Zm226-4 1-2 2 2Zm-642 0 1-2h3l2 3h-2l-1 2Zm-11-2 2 1-1 3-2-2Zm399 0h3l1 2h-3Zm260-2-1 3-2-2Zm-238-2 3 2-2 3Zm-413 0 3 2-3 2-2-2Zm417-2 2 2-1 9Zm-9-1v4l-2-2Zm-404-1h4v3l-2 1-2-1Zm413-1 1 4-2-2Zm-401 0 2-1 1 4Zm390-3 1 4-2-2Zm-16 0 2 2-2 2Zm247-2 4 4-4-1 1 3-2 2Zm9-2h2l1 4-4-2Zm-6 0h4l-2 2Zm-222-3-1 6h-2l-1 3v-5l3-1Zm220 0-1 2 1 1-2 2Zm-234-1 1 3-2 2Zm5-1v4l-2-2Zm234-1v3l-3-1Zm-228 0 1 2-2 2-1-2Zm231-1 1 3-2 2Zm-229-2 2 2v3l-2 2-2-5Zm221-2-1 2 1 2 3-3 3 1-4 5h-4Zm-639-1-4 2-1 4-2-3 3-4Zm412 1 3-3 5 1-1 4-2-1-3 2Zm-6-2h3l2 5-1 2h-4l2-1Zm249 0 1-2 2 2Zm-257-2 2 3-3-1Zm242 0v4l-3-2Zm18-3 2 2-2 3Zm-18-1v4l-2-2Zm-3-1 2 2-2 2Zm-245 1h5l-3 2Zm-395-1 3 2-3 2-2-2Zm399 0 2-1 2 2-2 1Zm-96 0-1 4-1-2Zm-39-1 4 1-1 2 2-1v11l-2-2-1-6 1 8 2 4-1 4-1-2 1 6-2 3 2 7-3 2 2 1-1 9 4 3-2 1-1 3 4-1-3 3 2 3-2 1 2 7-3 2h4l-1 3 2 1-4 1v2l2 3v7l5 3-3 2 1 4-2 3 1 4-4 2 2 3v4l-2 1 1 15h-3l-1 2 1-2 4 4h-4l3 5-3 4h2v2l3 2-2 11 2-1 1 2 1 12-2 3 4 4-2 6-6-15-6-27-3-20-2-32v-29l3-39 3-17Zm376 1 1-2 5 2Zm-640-5v4l-2-2Zm391-1v4l-2-2Zm-2-3 2-1 2 2-2 1Zm-373 0-2 3-2-2Zm-18 1 2-2 2 2Zm395-3 1 4-2-2Zm-31 0 2-1 2 2-2 1Zm25-2 2 3-3-1Zm-5 1h4l-2 2Zm-389-1 2 2-1 3Zm6-4 2 2-1 4-3-1v-3Zm9-2 3 4h2v2h-2l2 4-6 1 1 2-3 2-2-3 1-2-2-3v-3l2-1 2 2-1 2h3l-3-3 3-1Zm657-4 3 3-5 2Zm9-1 1 3-4 1Zm-5-9 2-1 2 2-2 1Zm-369 0h3l-1 4Zm75 0 1-2 2 2Zm-102-8 1 6-2 5 2 3-1 2h-2l-1 3 2 1-4 9 2 1-2 4 3-2 1 2-1 3 3 1-3 3-8-4 5-23Zm113-1 4 1-1 3-4-1Zm-386-3 1 5-3-3Zm101-3-10 4-3-1 2-2h4l4-2Zm286-2 3 1-2 4-2-2Zm290-5v6l-3-1v-2Zm-675 0h4l-2 2Zm29 9 7-8 6-4 11 9 9 4-4 1Zm356-13 5 1-3 1Zm-383-5v4l-3-1Zm-11-1 1 2-2 2-1-2Zm385-8 5-2 2 2-4 2Zm-368 1-5 3-3-2 2-2 2 1 2-3Zm366-3-1 3-3-2Zm309-2 2 2-3 1-1 2v-4Zm-554-1v28l1 3-3 3-32-1 15-9 11-11Zm-133-3 3 1 1 2-2 3h-3l-1-2Zm32-1 4 12 8 10v3l-10 10h-3Zm653-3-1 7-1-5Zm-552-1 1 3-4 9-1-3Zm-131-2 1 3h-4Zm2-2v4l-2-2Zm769-3 2 2v3l6 13 9 27 11 44-1 4 2 2 5 38 1 48-4 42-9 42-16 46-7 10V737l1-5v-16l-1-1 1-154-1-11Zm-776 3 1-3 3 2Zm684-1-1-2 2-1Zm-683-7 1 5-2-2Zm4-1 1 4-3-2Zm273-2v4l-2-2Zm-256 0 2 2-1 4-1-3-1 2 2 1-2 2-3-1 2-6Zm371-1 2 1-2 2-2-1Zm298-2 4 3-4 7Zm-655 0 1 2-2 2-1-2Zm344-1v3l-4-1Zm-363 0 2-2 5 4h-7Zm-6-2 3 4-2 2-2-2Zm384-1 2 1 1 5-2 2-2-2 2-2-2-2Zm-20-2 1-2 2 2Zm-358-2 1 3-2 2Zm364-1h6l-4 2Zm-357 0 1-2 4 2-3 2Zm676-4 1 2-2 2-1-2Zm-682 0 2 2-1 3Zm7-1 2-1 1 4Zm-4-3 1 3 3 2-2 2-4-5Zm745-1 2 2-1 3Zm-371 1 1-2 3 2Zm-3-2 3 2-2 2-3-2Zm-371 1 2-1 2 2-2 1Zm22-4v4h-3Zm644 1-3 3-1-3Zm-288 0 1-2 2 2Zm-118-1-1 3-2-2Zm-240-2 1 2-2 2-1-2Zm634-2v5l6 4-6 3-4-5 2-3-2-3Zm-626-1 10 10-10 8-5 1-7 9-2-2 1-7h2l-1-2 1-3 2 4 1-5 1 4 1-4 1 2 2-2-2-1 3-5-2-2-1 1-1-2 4-4 1 2Zm631 0 2-1 1 2Zm-657-2v4l-2-2Zm738-1 2 3-1 3-2-3Zm-740-3 2 1-1 3-2-2Zm11-1 2 13-1 27-2 1-1 3-3-6-1 6-1-6-2-2 3-6-5-3 2-2 3 3h2l3-4v4l1-13-4 1v-4l2-2 1 2Zm335-3 2 3-3-1Zm-325 2 1-2 2 2Zm-23-2v4l-2-2Zm21 0 1-2 2 2Zm-12-1h3l-1 3Zm-13-1 2 2-2 2Zm41 0-8 7 1 1-3 3-1-1-2 2 2 1-3 3-3 1-1-2-2 2 2 2-1 3 1 2-3 6-1-28 2-3 2 2v3-3l2 4h3l3 3-2-3h2l-1-4Zm622-2h2l3 3 3-1-3 11-5-2-2-4Zm-613 0-5 3h-4l5-4Zm-29 0h24l-3 2H64Zm-10-1 2 2-1 3-3-3Zm77 0h29l2-1 3 3-1 32-3-7-8-12-10-9Zm-6-1 18 8 13 13 8 16 1 8h-3l2 2-1 5 1 6-6 18-4 7-10 10-11 5-20 3 3-47 4 4-5-5 32-2-32-2 3-3-4 3-1-46 1-2Zm-16 0 4 2v46l-2 2v3l-5 6 4-5h3l-2 48-5-3-8-9 8 9 5 3-6 1-16-5-12-10 23-24-10 10-4 1-1 4-8 8-3-1-8-13 1-4 1 2 1-2 3 5 4 3-3-2-1-4-4-4-1 2-4-9 1-8 20 1-2 2-2-1-1 2 2 12 2 3-2-5 1-5-1 2-1-3 2-1 2-6 15-2-14-1 3-9-3 4-1-2h-2v2h2l1 2-2 4-20-1v-2l14-14 2-1 3 1 5-8 4 4-3-4 13-16-14 15-8-8v-3l1 1 1-1 1 3v-2l3-2 2 2-2-2h3l-3-3h3l1-2-7 2 3-3 8-4 10-3Zm306-1 1-2 2 2Zm-355-2 2 2-3 6Zm649 0-1 4-2 1-2-3Zm-655-2 1 5-2-2Zm743 0 2-2 4 1-2 3h-3Zm-102-2 5-1 2 1v3Zm-112-2 2 3h-3Zm104 1 1-2 3 2Zm-622-2 1 4-1 3-2-2v-4Zm-6 0 2 3-4 1Zm480-1 2 2 1-2 1 2 2-1v4l-1-1-1 2h-3l-2-4Zm166-1 2 3v3l-7 6v-3l4-3Zm-123 1h3l-1 3Zm-111 1 1-2 5 1-3 2Zm35-3v4l-2 1-2-2Zm-435 0 3 4-3 4-2-2v-4Zm515 1 2-2 3 1 2-1 3 2v3l-9-1Zm-18-1 2-1 2 2-2 1Zm-2-1 3 3v4l-3 1-2-3Zm-117 2 4-2 4 3Zm155-3 1 5-4 1v-4Zm-61 1-4 3-1-2 2-2Zm-476 0 2-1 2 2-2 2Zm563-1 2-1 5 5h-4Zm-211 2 1-3 5 1-3 1-1 3Zm-358-3 3 2-2 2-2-2Zm449-1 2 3-4 4-2-4Zm-95 2 2-2 3 1-2 2Zm-337 0 1-2 2 2Zm564-3 2 2-4 4-1-2Zm-117 2 1-2 2 2Zm-24 0 1-2 2 2Zm-430 0 2-2 4 1-2 2Zm561-2 4-1 2 2-4 1Zm-118-1 1 2-2 2-1-2Zm-8 3v-3l6 1Zm-46-1 1-2 2 2Zm-381 0 1-2 2 2Zm-11-1 2-1 1 2Zm517-2 2 3-2 1-2-2Zm-134 0 2 3-1 2h-3Zm224-1 3 6-3-1Zm-59 1 7 1-3 1-1 2Zm13-1 3-2 3 1-3 2Zm-56-1 2 1 1-2 3 3v5l5-1 2 2-10 1-2-3 2-2Zm226-1 2-1 2 2-2 2Zm-272 1 1-2 3 2Zm101-1 1-2 2 2Zm-131-2 4 3 1 3h-3l2 2-3 2h-3l-2-2 2-2-5-2 8-1-3-1Zm-428 2 1-2 2 2Zm368-1 1-2 2 2Zm267 25v6l-5 7 2 2-4 3 3 2-2 4 2 1 1 6-1 2h-3l3 1 4-6h5v-4l2-1 3 5-3 2 1 2 3-9 1 6-1 3-7 10 7-5 2 4v5l-2 3-4-7v2l-6 1 2 1v4l4 3-4 5 5-1 2 2-5 4 3 2 2 6-4 6-6 5-1-4 5-2v-2l-3 3-3-4-4 3 1 4 3 1-3 1 6 1-3 1-1 2h-3l1 4 4-6 4 1-2 3 1 1-1 3 2 1-3 7 2-3 2 2-2 5-2-2 3 3-2 2-2-2 3 4-3 1-2 4 3 2v7l-3 2-2-2 2-4-3-1 3-2-3-1-4 3 2-1 3 5-2 3h-2l2 7 4 1-4 2-2 7 4-1-4 5-4-9-1 3 1 4-2 3 1-2 2 2v4l-2 4-3-3 4 5-2 1 2 6 3-3v4l-3 2-6-5-2-9 1-6-3-3h2l1-3-2-3 1 2-2 3-3-10-3 3 4 2v4l-5-4 1 2h-3l1-17 2 1-3-3 1-98-18 1-2-2-2 2-70-1-82 1-1-2-2 2-14-1-26 1 1 22-1 1v29l1 2-1 54-4 3 3-2 1 10-2 2-6-4 3-1-2-3 1-4-1-3-3-3 2 4-1 6-2 1v5h4l-9 4 7 2 4-1v-5l5 5-2 4-5-1-2 3-4-4-2 8-5-10v-3l2-2-2 2-1-9-1 2-2-2-5-1-1-2 1-3 2 3h3l3-3-4 3-2-2 4-3-2-1-3 1 1-2-4-2 3-4-6-3 11-1-1-2-5 2-1-4 2 1-2-2-1 1-3-4 5-6-3-3 2-2h3l-2-2 2-2 6-2 1 2-2-7-3-2 3 4-6 5-4-1 5-3h-3v-3l1 1 2-2-2 1-1-3 1-2-2-3 2-1-4-5-4 4-2-2 2-1-2-1 3-2-3-1-1 2-2-2 2-2h3l-1-8 7 1v-2l-6 1-2-2v-4l3-5 5 7 4-1-2-2-3 1-2-3v-4l6 3-2-3 2-6 2 1-1-2-3 1-1-2h-6l2 1-2 2-3-6 1-5 3-3 7 2-2 1-2 4 3-3 2 2v4l2-14 2-1 1 2v-6h-2l-1 3-3-8 3 1 3-7h1l1 5 1-7 3 2-1-3 1-1-2 2-1-3 6-7v-2l-2-2h-4l-1 3 3 2v4l-6 2-3-3 1 4-3 1 2 2v3l-3 5-2-3 1-4-3 1-3-3 2-2h4l-8-1v-3h2l1-3h-4v-2l2-2 1 2 2-1 2 2 1-2h5l2-2v6l2-1v-2l-2-1 2-4-5-5 5-1 1-2 3 2h3l-4 4 6-2 3 3-3-4h7l1 2h-3l2 2-4 4 4-3 8 1 2-2 6-1-3 1-3-2 3-1 4-4 4-1 2 2-2 3-3 1 7-2 3 1-2 2-5 1 1 3h3l6-6 5 1 8-2 6 3h-4l4 6 3-3 6 3 8-4-2 1-1-2 5-9 3 2-2 4 15 1 1 4 5 4-3 2-3-4-1 1 1 3-2 1 4-1 1 1 3-2 3 3-4 4 2 1 3-1v-4l2-2 2 1 1-1 2 2-1 2 2-2 2 2v-4l4-3 4 2-5-3 4-5 3 2 1 3-1 3 4-2 3 3 3-4 7 3 5-1 2-3h2l1 2 2-1 5 2 1 5v-3l3-3 2 2-1-3 2-2 1-5-1-2-7-2 2 1v-3l-4 4-2-2 1-2-2 2-2-4 3-4 1 4 3-3 3 3 2-3 5-2 9 2v3l-2 2 2 1-2 1 2 2h6v3l3-1 3 3-9 1 7 2 7-2 2 4 9-3-4-2 4-1 6 3 5-1-3 3 6-3v-3l2 1 1-2 1 4 3-1v-3l-2-2 2-2 3 1-1 4 4 6h3v6l1-3-1-1 3-4 3-1 5 1-6 3 3 4-1 11 1-8h2l-2-3 5-4 3 5-1-8h3l-1 11 1 1-2 1-1-2-3-1 1 6 4-2 3 4-2 1v3l2 2-2 1 4-4-3-6 2-2 3 3v2l2-2-1-4Zm-127-28 3 3-2 3Zm-50 1-1 2-3-1Zm-63 2 5-3 1 3 3 2-3 1Zm330-3h3l-1 4Zm-108-1 1 5-3-3Zm-84 0h11l-9 2Zm-104-1 5 4-4 1-2-2Zm137 1 1-2 2 2Zm-38 0 2-2 2 2Zm28-1 1-2 7 2Zm-26-1 1-2 2 2Zm31-4 4 4-5-2Zm-7 1 2-1 2 2-2 2Zm54-1-3 2 1 2 4 1 1-1 2 9h-3l-3-5-2 1-1-1-7 7-5 1 7-6 1-2-1-5h3l3-4Zm-13 1-2 1-5-2 5-2Zm-68-3 1 3-2 3-1-3Zm-102 0v4l-2-2Zm173 1 2-2 2 2Zm-332-4 2 8-1 5-2-2Zm-247 0 3-1 2 2-3 1Zm581 1v1h-3Zm-55-1 2-2 3 2Zm188-1h-5l3-1Zm-170-3-1 3 3-1 2 2-1 3-5 1-3-4Zm165-8-1 4 2 2-4 3Zm-727 1 1-2 2 2Zm22-5 2 2-3 2-2-2Zm-7 0 2 1-1 3-2-2Zm-15 2 1-2 2 2Zm686-4 1 4-2-2Zm-683 2 1-2 2 2Zm262-7 2 9-2 8Zm-231 1 1-2 2 2Zm-16-4h3v4Zm24-2 1 4-3-2Zm-3 0 1 6-3-4Zm-34-1 1 4 2-1 2 2-3 1-1 2-2-2-1 6-3 2-1-2 2-2-1-2h2l-1-2 2-2-1-1Zm674-2 4-1 1 4Zm-652 0 2-2 7 2-4 1-1 2Zm-10-2 1 3-5 5-2-2Zm-13 3 2-3v2l3 2-3 1Zm49-6 1 3-2 2-1-3Zm-43-2 1-2 5 2-3 3Zm14-1 1-2 4 1 2 3-4 1Zm-8-3 8 8-3 3-6-9Zm709-3 3 7-2 1v4l3 6-5 2Zm-700 0 2 3-3-1Zm703-1 4 2-1 3-4-3Zm-355 0h4l-2 2Zm-338-1 3 3-2 1-2-2Zm676 1 1-2 4 1-2 2Zm-18 0h-10l8-2Zm-61-1 2-1 5 2Zm-190-1 3 2h4l-2 2-5-1Zm-73 2 2-2 2 2Zm-341-2 2 3-2 1-2-2Zm648-1v4l-7-1Zm16 0 5 2 13 1h-16Zm-27-1 1 4-2-2Zm-112 0v6l-4-2Zm-59-1 1 1 1-1v3l-3-1Zm140-1 1 2-4 3-1-4 2 1Zm-179 1 1-2 5 1Zm-62-1h3l1 2h-3Zm328-1h4l-1 3Zm-12 1 2-2 4 2Zm-25-1 4-1 3 4-4 1 1-2Zm-22-1 2 5-3-3Zm-630-2 1 2-2 2-1-2Zm-20-1 5-1-2 2Zm32-3 2 2-1 3Zm-35 2 2-2 2 2Zm27-5-1 2-3-1Zm-21-1 1 3-2 2-2-2Zm320-2 1 2-4 4-1-2Zm-304 0-1 5-1-3Zm0 0 2-2 3 1Zm-20-2 1 2-2 2-2-2Zm9-2v3h3l-4 6v4l-3-3v-5l-4-1 3-2 2 1Zm320-2 1 2-3 3-1-2Zm-313 0 1 2-2 2-1-2Zm316-4 1 2-2 2-1-2Zm-303 1 1-2 2 2Zm-14-2 3 2 2 5-4 1 1-3-3-3Zm615-3 16 18-1 3-16-19Zm-295 0 1 2-2 2-1-2Zm-305-4 2 2-2 2-2-2Zm-7 0 2 2-2 2Zm8-4v4l-3-1Zm3-3v4l-3-2h2Zm-28-12 1-2 2 2Zm78-5-1 5-1-3Zm-38 0v4l3 2h-4v2l-4 1 1-2-2-2 1-3 3 2Zm-22 2 2-2 2 2Zm-13-2 1 2-2 2-1-2Zm59-2 2 2-2 2Zm-14-1 2 1 1 4-4-1Zm-25 0 1 6-2 2-1-2Zm11 0 5-1v3h-3Zm-32-1h3l-1 5Zm56-2 1 2-3 5-1-3Zm-6 1-3 3-1-2Zm-36-1 1 4-2-2Zm4-1 2 4-3 4-1-2Zm31-3h-4l1 2-2 2-2-4 2-2Zm-2-3 1-2 2 2Zm3-4 3 4-2 4-1-5-2-1Zm17 1 1-2 4 2-3 2Zm31-7h3l-1 3Zm-26-1-1 5-1-3Zm8-4v5l-2-2Zm-17 0 3 2h-2l-2 3-1-3Zm-12 0v4l2 1-2 3v-2l-4-3 3-1Zm47-1-1 5-1-3Zm-78 2 1-2 2 2Zm74-2 1-2 2 2Zm-4-5 1 2-2 2-1-2Zm-8-3-3 3-2 7-1-5 1-3Zm25-4 1 2-3 2-2-3Zm-35-2 2 2-3 1 2 1-2 3 4 1-2 1 3 2-1 3h-3l-4 4v-5l-3 1-4-1-2 6 1 8-6 2v-2l-4-1-1-2 5-1-2-4v-4l2-3 1 3-1 3 3 6-1-11 4-6-2-1 3-1v-3l2 3 3-2 2 2 1-3Zm-7-2 1-2 3 2Zm21-5 2 4 3 1-4 1-2-2Zm19-3 3 2-2 3 2 1-1 1 1 1-3 3-4 1 1-1-1-4h2Zm-3 0 1 3-3 5v-6Zm-33-1-1 6-1-4Zm38-3 1 2-2 2-1-2Zm-32-1v6l-1-3-1 3v-5Zm28-1v6l-2-2Zm-89-1v4l-2-2Zm93 1 1-2 2 2Zm-1-2v3l-3-1Zm-7 1 2-1 2 2-2 1Zm-1-1 1 2-3 3-1-2Zm-7 1 3-1 2 2Zm21-2 1 7-2 3-2-3 2-1Zm11-5-3 4-5-1v-2l5-1 1-2Zm11-6 2 2-3 2-2-2Zm-12-1 1-2 2 2Zm4-1 2-2 3 4h-4Zm8-3 2 3-3 2-2-2Zm30-17 2 2-2 2-2-2Zm-1-6h4l-2 2Zm10-6 2-2 2 2Zm-4 0-1-2 2-1Zm3-6v5l-2-3Zm13-11 3-2 3 2v4h-3Zm289-7 2 2-3 23Zm-276-2 1-2 3 1Zm290-8 4 4 1 5h2l4 4 114 150-1 3 16 19-1 2 4 8h-35l14 1-6 3-1-2-3 3-3-1 2-2-3 1-3-3 1 3 4 2-1 2 3-1 1-2h4l5 3-2 2-21-1-1-3 1 3-2 2-3-1-5 1-7-3-3 3-29-1-1 1-4-2 5-6-3 1-2-2h-3l-4 3v-3l-7 1-1-2-3 1-39-1-1 3-2-1-1-2 3-2v-5h-2l1-17 1 3v-4l2-2-2-3-1 3-1-16 3-9-2 1-1-3 1-1-1-13 2-10-2-1 1-11 1 10 1-52 2-1-3-1v-17l3-4-2-1 2-10 1 3h2l-1-6 2-1 4-7v-15Zm-28-1 1 2-1 17 1 7 5 6v3l1-2 2 6-2 2 2 2 1 5 3-1-1 16-2 1 3 1-1 79 1 21-2 2v4l2 1-1 24h-42 2l1 4-4-1-1-2-2 1-1-2h-2l2 2h-6l-1 3 2 1-3 1-3-2-1 2 4 3-22-1-3-3-2 1 2-1 2 2h-6v-2l-4-3h-2l-1 2 2-1 5 4-6 2h-13l-7-2 1-5 1 3 3-3 3 4 1-4 3 2 4-2-2-1 2-1-6-1-3 1h-26l-25-2-4 1-1-2 6-7v-4l7-9 6-5v-5l43-54 76-99 4-2-1-2Zm-252-12 3 4-2 1-3-3Zm252-2 1-2 3 4 6 2-4-2h3l2-2 2 5h3l-1-2 2-3 1 2h2v2l6-5 1 2-4 4-10 3-7-2Zm-237-2 2-4 3 1v3Zm1-6-1-2 2-1Zm246-2 3-3h2l3 3-1 3-1-2-2 1-1-2Zm-218-10-4 4 1-4Zm-9-2 2 2-2 3Zm3 0 2-2 2 2Zm9-4 1 2-4 4 1-5Zm-7 2v-3h2v-2l5 2-2 2-1-1-1 2Zm13-24 2-1 2 2-2 1Zm-4-1v3l-3-1Zm13-1 1-2 2 2Zm1-4 5 1-4 1Zm3-4 1-2 3 2Zm5-9 2 3-2 5-3-6h2Zm0-7 1 2-2 2-1-2Zm0-7 2 2-3 5-1-4Zm3-3h4l-2 2Zm13-10h5l-3 2Zm7-5v4l-2-2Zm-1-6 1 4-2-2Zm11 1-5 2v-3l2-1Zm3-8v4l-2-1Zm-2-6 1 1 1-1v6l-3-3Zm7-3 3 3-2 2Zm9-8 1 2-3 4v-5Zm2-4 3 3-3 3-1-4Zm-3 0 1-2 2 2Z"/></svg>