<svg xmlns="http://www.w3.org/2000/svg" viewBox="0 0 199 112"><path fill="currentColor" fill-rule="evenodd" d="m151 37-3 1-5 5-1 6-1 1 1 7 1 2 5 5 2 1h7l2-1 5-5 1-2 1-5-1-7-1-2-5-5-3-1Zm-56 8v2h21v-3l-1-2-4-4-2-1h-6l-6 2 1 2ZM3 99h151l11-3 12-7 9-9 6-11 3-10V44l-2-9-7-13-10-10-11-6-10-3H43L30 7l-8 5-10 10-7 13-2 8Zm145-70h11l7 3 6 6 2 4 1 4v10l-1 4-2 4-9 8-3 1-8 1-1-1h-4l-5-2-4-4 1-3-2 2-2-2-2-4-1-4V46l1-4 3-5 5-5Zm-48 0h11l7 3 5 6 2 5-1 11H95v3l2 4 2 2 4 2h7l2-1 5-6 4 2 3 3-1 2-6 6-4 2-8 1-1-1h-4l-5-2-6-6-3-6-1-9 2-9 2-4 5-5Zm-62 0h12l3 1 3 2 5 5 1 2-1 3-6 2-3-4-3-2-3-1h-4l-3 1-5 5-2 6v5l3 7 3 2v2l2-1 7 1 4-2 2-2v-1l3-2 7 4-1 2-7 7-4 2-8 1-10-3-5-4-5-10V46l3-8 6-6Zm32-8 9 1-1 52-9-1Z"/></svg>