<svg xmlns="http://www.w3.org/2000/svg" viewBox="0 0 199 112"><path fill="currentColor" fill-rule="evenodd" d="m150 29-4 1-8 5-4 6-2 8v4l2 8 3 5 3 3 5 3 4 1h9l6-2 6-5 4-8 1-9-2-8-5-7-7-4-4-1Zm7 8 4 2 4 5 1 3v8l-1 3-5 6-7 2-6-2-4-4-2-5v-8l1-3 6-6 2-1Zm-54-8-8 3-6 6-3 8v11l4 9 6 5 5 2h10l7-3 4-4 2-4-7-3-6 6-6 1-5-2-4-4-2-5 2-2h29v-8l-3-8-5-5-8-3Zm-8 15 1-2 4-4 2-1h8l5 4 1 6-21-1ZM41 29l-4 1-6 3-5 6-3 10 1 10 3 6 5 5 7 3h10l7-3 4-4 2-3v-2l-4-1-3-2-5 6-6 2-6-2-4-4-2-4v-9l2-5 6-5h8l2 1 5 6 7-3-2-5-6-5-7-2Zm29-8v52h9l-1-52ZM0 0v111h198V0Zm2 98V47l3-13 6-11 8-9 7-5 11-5 10-2h104l6 1 7 2 8 4 7 5 5 5 5 7 5 11 2 10v8l-2 10-5 11-6 7v1l-8 7-14 7-12 2H4Z"/></svg>