<svg xmlns="http://www.w3.org/2000/svg" viewBox="0 0 622 352"><path fill="currentColor" fill-rule="evenodd" d="m482 224 3 4 20 37 1 22h9v-21l16-30 7-11v-2l-11 1-15 29-2 2-7-12-10-20Zm-70 0 1 63h8l1-48 3 4 10 18 3 7 11 1 13-25 3-4 1 47h9v-64h-11l-7 12-4 9-9 15-2-2-4-7-5-11-9-16Zm-55-1v64h41v-9l-31-1 1-18h28v-9l-29-1 1-17h30v-9Zm-66 0v64h25l10-2 9-5 7-8 4-12v-10l-1-5-5-10-6-6-5-3-6-2-6-1Zm11 9h16l4 1 4 2 7 7 3 8v10l-2 6-7 8-6 3-7 1h-12l-2-2v-42Zm-56-8-3 7-2 8-19 47 61 1-1-6-15-36-5-16-3-6Zm7 9 7 16 10 27-2 2-32-1 1-5 4-8 6-19 4-10Zm-132-10-1 4-4 8-9 26-8 18-2 8h61v-2l-2-3-1-5-5-13-3-5-13-35Zm6 10 2 2 1 4 6 14 2 8 4 8 2 6-1 3-32-1 1-6 4-9 6-18Zm61-11-8 2-6 3-9 9-3 6-2 7v12l2 7 4 7 7 7 5 3 11 3h8l9-2 6-3 8-7v-2l-6-4h-2l-5 5-6 3-5 1h-6l-9-3-8-8-2-4-1-4v-11l3-7 5-6 10-5h10l4 1 4 2 6 6h2l6-5-4-5-4-3-6-3-8-2Zm242-81v64l9-1-1-34 1-13 3 3 28 43 2 2h10v-64l-9 1-1 46-3-3-28-42v-1Zm-139 0v64h25l7-1 12-6 7-8 3-7 1-5v-10l-1-5-5-10-5-5-6-4-11-3Zm10 9h16l5 1 4 2 7 7 3 8v10l-3 8-6 6-6 3-5 1h-14l-2-2Zm-78-9v64l9-1 1-46 9 12 7 12 15 21v1l11 1v-64l-9 1-1 46-17-24-13-21-2-2Zm-117 0v64h38v-9l-29-1v-54Zm264 2-5 3-6 6-5 9-2 14 2 10 3 6 7 8 12 6 5 1h8l6-1 9-4 8-7 4-7 2-7v-14l-2-7-2-4-8-9-5-3-11-3h-9Zm11 6h9l6 2 3 2 8 9 2 7v8l-1 4-3 6-9 8-7 2h-7l-4-1-6-3-6-6-3-6-1-5v-6l1-5 3-6 7-7Zm-218-6-6 4-4 4-3 4-3 7-1 4v15l3 8 4 6 4 4 12 6 6 1h7l6-1 9-4 8-7 5-9 2-11-1-9-1-4-3-6-8-9-5-3-11-3h-9Zm11 6h9l8 3 8 8 3 9v8l-2 7-2 3-7 7-9 3h-7l-4-1-6-3-6-6-3-7-1-8 1-6 3-7 6-6 3-2Zm228-90v64h41v-9l-31-1 1-18h28v-9l-29-1 1-17h30v-9Zm-60 0v64h9l1-24h9l8 9 10 14 12 1-1-3-14-17-1-5 7-3 6-7 1-3V74l-3-7-7-6-8-2Zm9 11 2-2h16l6 2 4 5v9l-5 5-2 1-21-1Zm-75-11v64l50-1V59h-9l-1 55-30-1-1-54Zm-57 0v9l19 1v54h9V70l2-2h17v-9Zm-60 1 1 63h49V59h-9l-1 55-30-1-1-54Zm-12-1h-41v64h9V97l2-2h29v-9l-31-1V70l2-2h30Z"/></svg>