<svg xmlns="http://www.w3.org/2000/svg" viewBox="0 0 1393 694"><path fill="currentColor" fill-rule="evenodd" d="m1138 360 27 80v58h27v-58l27-80h-29l-1 9-4 14-4 23-2 5-2-4-4-22-5-20-2-5Zm-51 0v138h63v-25l-36-1V360Zm-84 0v138h40l10-3 8-5 5-6 3-6 3-12v-19l-1-5-4-8-10-10 7-4 3-4 3-7 1-5v-14l-3-11-3-6-7-7-5-3-11-3Zm28 78h8l2 1 4 4 2 5v12l-1 5-3 5-5 3-8-1Zm0-53 8 1 2 1 4 5 1 4v6l-2 6-6 5-8-1Zm-140-25v138h26l1-65 2 2 7 22v3l4 11h18v-2l7-19 3-13 2-3 1 64h27V360l-26 1-3 10-8 19-5 17-2 3-5 15-2-2-1-5-10-29-11-29Zm-73 0v138h64v-25l-37-1 1-31h31l-1-26-31-1 1-29h36v-25Zm-227 0v4l-1 1v5l-25 128 29-1v-6l2-13 2-7 21 1v6l2 13 2 7h27l-1-10-3-15-1-1v-5l-8-42-5-21-4-26-4-18Zm17 35 2 7 1 18 3 18-1 8-12-1 3-17 2-26Zm156-36-12 4-9 8-4 8-2 7-1 7 1 18 4 10 10 10 11 6 12 5 5 5 2 9-1 11-4 6-2 1h-5l-5-4-2-7v-4l-23 4-4 2v3l2 10 2 5 7 9 6 4 9 3h20l7-2 7-4 4-4 5-9 3-16v-14l-1-8-3-9-10-11-9-5-13-5-6-5-2-4v-11l1-3 5-5h5l4 3 2 4v5l1 3 10-2 5-2 9-1 2-1v-4l-1-1v-5l-2-6-4-7-5-5-7-4-7-2Zm-81 0-7 2-7 4-6 6-4 7-3 13v14l1 7 4 9 6 7 7 5 18 8 6 5 2 4v17l-4 6-2 1h-6l-5-6-1-9h-2l-17 4h-5l-1 1h-2v6l1 5 4 10 2 3 8 7 11 4h20l7-2 7-4 4-4 4-7 3-11v-9l1-1-1-18-2-7-3-6-7-7-8-5-9-3-6-3-7-6-1-2v-13l4-6 2-1h5l4 3 2 4 1 8 23-5 1-1h2l-1-9-3-9-7-9-6-4-10-3Zm-296-14-5 1-4 2-4 4-2 5v8l2 4 5 5 5 2h6l5-2 5-5 2-5v-6l-3-7-5-4Zm676-151v138h63v-25l-36-1V194Zm-169 0v138h27l1-54h4l2 2 10 36 3 7 2 9h55l2-8 1-12 2-7h19l2 2 1 12 3 13h27l-1-10-9-42-8-47-5-21v-5l-3-13h-33v4l-3 11-3 21-18 94-2 5-2-3-1-5-14-40v-3l-2-4v-2l8-8 3-5 4-16v-16l-3-13-3-6-9-9-10-4-5-1Zm119 35 2 8 1 18 3 18-1 7-12-2 4-25 1-18Zm-91-10h8l3 1 5 4 2 4 1 6-1 9-2 4-3 3-4 2-10-1Zm-101-25v138h63v-25l-37-1 1-31h31v-26l-32-1 1-29h36v-25Zm-92 0v138h27l1-67 2 6 2 3 6 19 15 35 1 4h23V194h-26l-1 65-2-2-8-24-15-35-1-4Zm-73 0v138h63v-25l-36-1 1-31 31-1v-25l-32-1 1-29h35v-25Zm-56-1-11 4-8 7-5 9-2 7v88l2 7 3 6 7 7 6 3 8 2h18l7-2 9-5 7-9 3-10v-52l-36 1v22l10 1v22l-2 4-5 3h-5l-2-1-3-3-1-3v-74l2-5 4-4h6l5 5 2 9h3l7-2 11-1 5-2v-7l-2-8-3-6-3-4-5-4-6-3-7-2Zm-279-19-15 3-6 2 2 6-1 8-4 7-3 3-7 4-5 1-8-1-6-3-5-5-2-4-22 14 4 5 2 5v10l-4 8-7 6-5 2h-10l-7-3-3-3-14 22 4 2 5 5 3 6 1 4-1 9-4 7-3 3-7 4-9 1-5-2-2 6-3 15 1 5h4l3 1 3 2 8 9 1 3v12l-4 7-4 4-5 3-3 1h-4v5l4 16v4l13-1 7 3 6 6 3 6 1 4-1 9-5 8-7 5 13 20 2 1 3-3 4-2 4-1h6l8 3 7 7 3 6v11l-3 6-3 3 2 2 20 13 1-3 4-5 9-5h10l7 3 6 6 3 6 1 8-2 6 25 5 1-2v-4l3-6 5-5 3-2 6-2h8l7 3 7 7 3 7v4h2l6-2 9-1 8-2-1-13 3-6 4-5 9-5h10l5 2 8 7 2 4 21-14-4-6-2-6v-7l2-6 7-8 6-3 9-1 4 1 9 5 14-21-4-2-6-6-3-7v-10l1-3 6-8 9-5 13 1 5-25h-4l-7-3-7-7-3-7v-8l1-4 3-5 5-5 6-3 6-1v-2l-2-6-1-9-2-8-6 2h-4l-7-2-9-8-3-7v-10l5-9 2-2 6-3-13-20-2-2-3 3-6 3h-11l-6-3-7-7-3-8v-6l5-13-20-13-5 7-8 5-9 1-7-2-9-8-3-7 1-13h-4l-16-4h-5v4l-2 5-2 3-7 6-4 2h-12l-6-3-7-7-3-10Zm50 71 33 1 27 201h-30l-6-48h-16v2l-1 1v7l-2 8-2 23-2 8-29-1 26-200Zm-80-1h17l5 1 10 5 6 6 4 6 2 5 2 10-1 35-27-1v-30l-1-5-2-3-3-2h-6l-5 4-1 3v140l3 4 5 1 4-1 4-4v-41l-6-1 1-24 33 1v71l-5 12-8 8-5 3-6 2-7 1h-10l-7-1-12-5-8-9-4-12V273l3-10 6-9 6-5 6-3Z"/></svg>