<svg xmlns="http://www.w3.org/2000/svg" viewBox="0 0 1200 1200"><path fill="currentColor" fill-rule="evenodd" d="m601 570-13 3-9 6-7 11-2 10 2 12 7 11 11 7 10 2 12-2 11-7 6-9 3-13-3-13-4-6-11-9Zm167-198-13 3-6 5-1 4v430l1 4 4 4 8 3 24 1 12-3 5-5 2-6V386l-2-6-6-5-12-3Zm-88 4-10-3-26-1-59 8-48 25-33 47-12 70v289l2 7 5 5 12 3 24-1 7-2 5-5 2-7V519l5-40 20-34 35-19 42-5h23l9-3 4-5 2-6 1-14-2-10Zm-292-3-46-1-38 3-45 11-38 17-33 24-28 32-23 44-12 44-5 55 4 59 12 47 18 38 21 27 33 28 38 18 36 9 38 3 52-4 36-12 17-17 4-16V617l-2-6-4-4-9-3-9-1-18 1-8 3-5 5-2 150-2 7-7 8-19 6-28 1-27-3-25-8-25-15-21-21-17-27-11-29-8-43-2-33 3-41 10-39 15-31 23-28 21-17 32-16 40-10 26-2h43l7-2 4-4 3-8 1-14-2-10-7-7Zm661-4h-12l-8 4-16 15-178 198-4 8 1 13 15 19 165 183 18 17 13 4 12-2 12-5 7-5 4-7v-4l-2-4-13-16-163-179-5-7v-3l6-9 174-192 3-6v-4l-3-6-10-7Zm116-335h-110L845 356l320-320Z"/></svg>