<svg xmlns="http://www.w3.org/2000/svg" width="725" height="46" fill="none" viewBox="0 0 725 46"><path fill="currentColor" d="M.328 1.834H23.21v14.492h14.313V1.834h22.891v42.118H37.523V28.647H23.209v15.304H.33zM84.58 32.957 62.79 1.834h26.248l7.25 12.679 7.242-12.679h25.991L107.73 32.877v11.075H84.58zm47.318-31.123h30.875c15.671 0 25.754 4.081 25.754 14.759 0 11.144-9.677 15.551-25.694 15.551h-8.043v11.808h-22.882zm26.289 20.326c5.131 0 7.746-1.615 7.746-5.34s-2.645-5.17-7.627-5.17h-3.526v10.51zM191.5 1.834h52.696v10.42h-29.805v4.834h24.526v10.797h-24.526v5.31h29.805v10.757H191.5zm55.828 0h37.165c14.472 0 21.306 4.14 21.306 11.886 0 6.835-5.17 10.084-11.737 11.263 7.627.94 12.411 3.318 12.411 11.005v7.924h-22.852v-7.786c0-4.952-2.912-6.27-9.241-6.27h-4.141v14.096h-22.881zm28.953 18.394c4.081 0 6.934-1.198 6.934-4.576 0-3.23-2.753-4.19-6.934-4.19h-6.072v8.766zM387.238 1.834h22.882v42.118h-22.882zm25.496 29.568h24.912c.119 3.14 2.586 5.051 6.459 5.051 2.426 0 4.774-.822 4.774-2.971s-1.981-2.902-5.834-3.636l-10.361-1.98c-8.915-1.675-19.157-4.488-19.157-12.937 0-10.599 14.026-14.56 28.814-14.56 13.997 0 28.34 3.902 29.538 13.43h-23.931c-.357-3.397-2.823-4.516-5.666-4.516s-4.903 1.179-4.903 3.17 1.912 2.377 4.021 2.793l14.967 2.972c9.034 1.753 16.513 4.893 16.513 12.877 0 10.301-13.61 14.313-30.281 14.313-17.334-.04-29.389-4.903-29.865-14.006m62.879-29.568h22.882v29.31h25.754v12.808h-48.636zm67.775 0h32.767l17.75 42.118h-24.763l-2.051-6.102h-15.165l-2.06 6.102h-24.139zm20.187 24.645-4.081-12.471-4.051 12.47zm32.062-24.645h26.318l16.899 23.09V1.833h20.415v42.118h-25.685l-17.483-24.04v24.04h-20.464zm67.199 0h30.865c19.92 0 31.063 6.577 31.063 20.742 0 14.164-10.856 21.376-31.212 21.376h-30.706zm26.081 31.222c7.102 0 11.47-3.021 11.47-10.47s-4.2-9.906-10.896-9.906h-3.843v20.376z"/></svg>