<svg xmlns="http://www.w3.org/2000/svg" viewBox="0 0 1141 129"><path fill="currentColor" fill-rule="evenodd" d="M844 26v69l2 5 6 6 7 3h71l7-3 6-6 3-9V29l-1-3-2-3-4-2h-5l-4 2-3 5v58l-4 4h-57l-3-3-1-3V26l-4-4-2-1h-6l-2 1Zm-108-5-3 4v80l1 2 3 2h79l4-2 3-5v-5l-2-4-3-2-4-1h-60l-2-2V76l4-3h61l2-1 3-3 1-2v-6l-1-2-3-3-2-1h-62l-3-3 1-12 2-1h62l2-1 3-3 1-2v-5l-1-3-3-3-2-1Zm-134 3-2 4v73l1 3 2 3 4 2h5l2-1 4-4 1-3V76l2-2h63l2 2 2 10v6l2 11 1 2 3 3 2 1h7l4-4 1-2v-6l-6-32 6-8 2-7v-6l-1-5-4-8-4-4-7-4-7-2h-81Zm18 20 1-3 2-2h63l2 1 2 3v8l-3 3h-64l-3-4ZM490 21l-3 3v82l3 3h80l2-1 4-4 1-3v-3l-1-3-3-3-5-2h-60l-3-4v-9l1-2 3-2h62l4-3 2-4v-4l-2-4-2-2-2-1h-61l-4-2-1-2v-8l1-2 3-2h62l4-3 2-4v-4l-2-4-4-3Zm-98 0-2 1-1 2v12l1 2 2 1h24l3 3v60l2 4 5 3h4l4-2 3-4V43l1-2 3-2h26l2-2-1-15-2-1Zm-92 0-2 1-1 2v13l2 2h24l2 1 2 4v59l1 2 3 3 3 1h4l2-1 4-4 1-2V42l3-3h26l3-3V24l-3-3Zm-79 4-4 6-4 11-5 17-7 17-7 20v7l1 2 3 3 2 1h6l2-1 3-3 2-4 3-11 2-2h49l3 4 4 13 3 3 2 1h6l2-1 4-4v-2l1-2-7-22-5-13-11-35-2-3-3-3-3-2-3-1h-30l-4 2-2 2Zm15 15 2-1h11l4 3 8 22v3l-2 2h-32l-2-2v-2l6-18 2-4Zm732-13-2 4-1 4v66l1 3 4 4 2 1h5l4-2 3-5V43l4-4h13l4 3 7 18 6 19 7 18 2 4 5 5 6 3h9l3-1 5-3 3-3 6-13 5-16 6-13 6-18 4-3h13l3 3 1 2v58l1 3 3 3 2 1h6l2-1 3-3 2-4V35l-1-4-2-4-4-4-7-3h-29l-3 1-5 3-4 5-17 44-2 8-2 4-3 1-2-2-7-18-1-6-3-8-4-8-3-11-3-6-4-4-7-3h-29l-7 3ZM21 31l-1 4v66l1 3 4 4 2 1h6l2-1 3-3 1-3V44l1-2 3-3h13l4 3 3 7 4 13 11 30 4 9 5 5 7 3h9l6-3 5-5 2-4 4-13 3-5 3-8 2-8 8-20 4-4h13l4 4v59l1 2 5 5h6l2-1 4-4 1-3V34l-3-7-4-4-7-3h-28l-4 1-5 3-2 2-3 6-9 23-5 16-3 5-1 5-2 4-3 1-2-2-6-19-4-8-3-11-7-18-6-6-6-2H34l-7 3-4 4Z"/></svg>