<svg xmlns="http://www.w3.org/2000/svg" viewBox="0 0 848 242"><path fill="currentColor" fill-rule="evenodd" d="m767 106-13 1-3 9v4l-3 6v4l-2 3v4l-2 3-2-2-2-4v-4l-3-11-2-3v-4l-2-5-13 1 11 30v3l5 11v7l-5 4-4-1-2 2-1 3 1 5 7 1 6-1 4-2 5-5 3-6v-3l2-3v-3l5-11v-3l7-17 3-9Zm-190 0-12 1-1 44 1 3 3 1h6l3-1 1-2v-44Zm78 0-8 5-5 8-2 7v8l2 8 3 5 3 3 7 4 3 1h13l7-3 5-4 2-4v-3h-2l-1-1h-7l-6 5-3 1h-4l-4-2-3-3-1-7 32-2v-10l-1-3-4-7-5-4-4-2h-5l-1-1Zm-2 16 1-2 4-4 2-1h8l6 6v3l-2 2h-16l-2-1Zm-55-15-7 6-1 3v8l1 3 4 4 4 2 8 2h5l4 2 2 2v3l-4 4h-7l-2-1-3-4-2-1h-8l-1 1h-2v4l4 5 10 5h14l7-3 5-4 3-6v-5l-1-3-2-3-5-3-6-2h-6l-6-2-4-5 2-3 5-2h2l5 2 2 2v1h12v-3l-5-7-6-3-12-1Zm-44-2h-4l-3 1-6 4-1 2-2-6-11 1v47l4 1h6l2-1v-29l1-3 4-4 5-2 6 1 1-3Zm-70 1-3 1-6 4-5 7v3l-2 3v13l5 10 6 5 6 3h13l10-5 4-5 4-10v-9l-2-7-3-5-8-7-3-1h-5l-1-1Zm5 9h6l2 2h1l4 7v13l-3 4v1l-4 3h-7l-6-7-1-5v-6l1-5 2-3Zm-102-9v48h2l1 1h7l1-1h2v-32l1-2 4-4h6l4 4 1 2v32h2l1 1h2l1-1 4 1 2-1v-32l5-6 4-1 4 2 2 2 2 5v30h6l1 1 5-1v-38l-4-7h-1l-4-3-7-1-1 1h-4l-11 6-1-3-4-3-8-1-6 2-4 4-3-1-1-4Zm-42 0-6 3-4 4-3 5-2 5v14l3 8 2 3 5 4 7 3h14l6-3 6-5 2-3-1-3-2-1h-7l-2 1-4 4-3 1h-4l-3-1-5-4-1-7 33-2v-7l-3-9-6-7-6-3h-5l-1-1Zm-2 15 5-5 2-1h7l2 1 5 6-1 3-2 1h-16l-2-2Zm357-32-2 1-1 64h2l1 1h7l1-1h2V90Zm-382 1-2-1h-12l-2 1-4 8-3 10-9 22-2 3-4-5v-3l-3-7-2-2v-3l-10-23h-16l-1 2 1 3-1 57 1 2 3 1h7l2-1 1-40 4 6v3l3 7 2 2v3l7 17 2 2h7l2-2 6-17 5-10v-3l2-2v-3l2-2 2 2v37h2l1 1h7l2-1 1-62Zm249-3-3 4v3l1 2 2 2 3 1 5-1 3-4v-3l-1-2-3-3h-5ZM143 55l-9 2-57 24-5 5-1 2v55l1 3 4 4 4 2h6l15-7 10-3 2-2h3l5-3 4-1 2 2v40l1 4 3 4 6 3h5l22-10 15-5 17-7 6-3 4-4 2-6v-48l-2-5-5-5-3-1h-5l-4 1-13 6-4-1-3-5v-2l-2-2v-2l-2-2-1-4-2-2v-2l-3-6-2-2v-2l-3-6-6-7Zm51 53 2 2-2 45h-2l-5 3-12 5-10 3-15 7-9 3-2-2v-43l3-3 10-3 7-3 2-2h3l27-12Zm-51-39 17 33 1 5-2 2h-2l-2 2h-3l-2 2-5 1-2 2h-3l-9 5-27 9-16-30v-2l-2-2-1-4 5-4 12-5h3l2-2 7-3h3l2-2 19-8Z"/></svg>