<svg xmlns="http://www.w3.org/2000/svg" viewBox="0 0 800 800"><path fill="currentColor" fill-rule="evenodd" d="m691 373-8 8-4 6-5 11-2 10-1 11 3 21 8 16 14 13 8 4 10 2h12l10-2 12-7 7-8 2 15h20V366h-21l-1 13-6-7-6-4-14-5h-15l-11 3Zm31 9h7l13 4 10 9 2 3v2l2 2v33l-2 5-3 4-8 7-6 3-9 1-1 1-14-2-7-4-5-5-4-6-3-9-1-7 1-14 3-9 3-5 11-10Zm-215-16-12 7-9 9-8 14-2 7-2 12 1 16 3 11 5 10 3 4 12 11 10 5 13 3h16l11-2 16-7 7-5 2-3-6-8-6-5-8 6-6 3-7 2-8 1-10-1-7-2-5-3-7-7-6-12 1-5h78v-16l-1-6-6-18-9-12-5-4-9-5-11-3h-16Zm-10 40 4-10 8-9 7-4 8-2 10 1 10 5 6 7 4 9-1 8-56-1Zm109-72v30l-2 2h-20v18l22 1v63l1 4 4 9 3 4 6 5 6 3 11 2h9l8-1 6-2v-18l-9 2h-8l-8-2-5-5-3-9 1-56h32v-18l-33-1v-31Zm-307-5 1 144 22-1 1-109 2 2 2 5 11 18v2l11 18 16 30 23-1 9-18 16-27v-2l16-27 2 110 22-1V329h-28l-7 12v2l-11 18-21 38-8 16h-3l-6-12-36-63v-2l-5-9ZM39 356l-8 16-5 15-4 21v28l4 14 6 11 7 7 9 5 9 2h12l8-2 9-5 13-13 6-8 12-19 19-34 23 39 12 18 16 17 9 5 9 2h11l9-2 11-7 5-6 4-7 4-13 1-10v-18l-3-21-6-20-8-16-8-11-9-9-7-5-8-4-8-2h-13l-8 2-12 7-15 15-6 8-14-16h-1l-5-5-13-8-12-3H81l-9 2-14 8-12 12Zm58-7 7 4 13 13 8 11-11 16-17 28-12 17-13 12-3 1H59l-3-1-7-7-3-8-1-6 1-22 3-15 5-14 9-16 10-10 5-3 8-2Zm80-6 4-1 11 1 12 7 5 5 5 7 8 16 6 23 2 23-1 10-2 7-3 5-5 4-3 1h-9l-3-1-10-9-6-8-3-6-3-3-16-26-5-10-11-16v-2l3-5 8-10 6-6Z"/></svg>