<svg xmlns="http://www.w3.org/2000/svg" viewBox="0 0 350 128"><path fill="currentColor" fill-rule="evenodd" d="m279 48-3 1-5 4-3 7v6l2 5 5 5 3 1h8l5-2 3-4-3-2-6 4h-5l-2-1-5-5 2-3 12 1 4-2 2-2 1-5-3-6-4-2Zm-5 10 1-2 5-4h5l4 3v3l-4 3h-6Zm-34-10h-16v29h5l1-25h10Zm-42 2-3 3-2 4v10l4 7 5 3 6 1 10-3v-6l-4 3-6 1-1-1h-3l-2-1-4-5 22-2v-4l-2-6-5-5-2-1h-9Zm0 9 1-2 4-4 3-1 4 1 4 4-1 4Zm-35-11 6 14 1 5 4 10 7-1 2-7 9-21-7 1v2l-2 3-1 5-5 10-2-3-6-17Zm-9 0v29h5V48Zm-65 0v21l1 3 5 5 4 1h3l6-2 4-4 1-2V48h-5v19l-4 5h-6l-3-3-1-2V48Zm-49 0v29h6l1-3 9-15 2-2 1 20h5l2-2 7-13 3-4 1 19h6V48l-8 1-1 3-9 14-1-18h-7L46 67l-1-19Zm215-1-7 1-2 2h-1l-2 3v6l2 3 4 2h3l5 2 1 4-3 3h-5l-5-3h-2v4l1 2 5 2h6l5-2 3-3 1-5-2-5-3-2-8-2-3-4 3-3h5l6 4-1-7Zm-118-8-1 9h-7v4h6l2 2v23h5l1-25h7v-4l-8-1v-8Zm17-3-1 2 1 4 4 1 2-2v-3l-1-2Zm-34 0v41h6V36Z"/></svg>