<svg xmlns="http://www.w3.org/2000/svg" viewBox="0 0 1080 1080"><path fill="currentColor" fill-rule="evenodd" d="m780 502 1 2 10 1 4 4v58l-4 4h-5l-4 2 40-1-8-2-3-4v-25l4-26 4-7 7-5 9 1 4 5 1 6-1 52-3 3-9 3 39-1-6-1-4-3 1-43 3-12 4-7 5-4 5-1 7 3 3 5v58l-5 4-8 2 41-1h-5l-7-4 1-53-3-7-6-6-8-3-15 1-6 4-6 13-3-9-6-6-9-3h-7l-9 3-5 4-5 8-2-6v-8l-29 1Zm-68 4-4 4-3 9 1 6 3 4 6 2 4-1 4-4 1-7-3-5-5-2-1-3 9-7 7-2 8 1 5 4 2 6v14l-1 4-3 3-4 2-12 1-10 3-6 3-5 5-3 8v6l3 8 4 4 7 3h13l8-3 9-8 4 6 6 4 6 1 11-3 4-6 1-6-2-16-2 23-4 4h-3l-3-2-2-5v-50l-3-7-6-5-8-3h-17l-7 2Zm32 27 2 3-1 24-6 9-5 3-7 1-5-4-3-7v-11l2-6 7-8 12-2Zm-51-32-5-2h-5l-9 4-8 13-2-16-30 2v2l11 1 4 6v57l-4 3h-9l-2 2 49-1-14-2-4-4 2-44 2-8 4-7 5-4 6-1 2 2-5 5v9l4 4 10-1 3-4v-9l-1-3Zm-366 3h8l6 4 2 43-1 16-4 4-11 2 43-1-8-1-4-5v-31l1-10 3-11 4-7 8-5h5l4 2 4 7v57l-4 3-8 2 42-1-11-2-3-3 1-52-4-8-5-5-7-3-16 1-8 6-3 6h-3l-1-12-15 1Zm-37-5-7 2-7 4-11 12-6 15v17l2 7 4 7 9 8 14 5h12l11-4 7-6 6-13v-6l-2 1-1 6-4 9-6 6-8 4h-11l-5-2-6-6-4-11-1-11 1-4 2-2 45-1v-6l-3-13-5-8-5-5-12-5Zm-3 4 5-2 7 1 6 6 3 10v15l-2 2h-27l-2-2 1-15 4-10Zm199 3-4 4-3 7 1 8 4 4 8 1 5-4 1-8-9-9 8-7 7-2 9 1 5 4 2 7v12l-1 4-3 4-5 2-19 3-7 3-7 7-2 6v7l3 8 4 4 8 3h10l11-4 6-7h3l4 7 6 3h10l6-2 4-6 1-21-2-2-2 24-3 3-4 1-4-4-1-3v-51l-2-5-5-5-9-4-9-1-10 1-9 3Zm32 27 2 2-1 25-2 4-9 8h-9l-3-3-3-8 1-14 6-9Zm104-50-10 1-4 5-2 10-20-1-10 4-8 7-4 7-1 13 3 7 6 6-11 6-2 4v12l2 5 10 8-12 6-3 6 2 6 10 9 15 5h22l11-4 10-10 2-7v-9l-2-7-7-8-10-4h-39l-6-4 1-8 5-3 5-1 12 3 17-1 11-5 5-5 3-6 1-10-4-10-10-9-1-10 1-2 4-1v3l2 3 6 1 3-3v-6Zm-54 106 3-7 9-5 21-1 7 1 7 3 6 7v7l-1 3-9 8-12 3h-10l-14-4-6-7Zm24-90 7 1 4 3 3 5 2 9-1 18-2 4-5 5-3 1-10-1-6-6-2-8 1-20 2-4 5-5Zm-149-31-3 1v6l-2 7-7 13-7 6-9 4 12 1 1 2v55l1 3 5 6 5 3 11 1 9-2 4-3 2-4 2-8-1-15 1-5-1-2-2 1v23l-3 7-5 4h-6l-6-8v-58l2-2h18l-1-3h-17l-2-2Zm-287-5 2 1h13l7 2 2 2 1 12v85l-4 4-18 2-2 2 73-1-19-2-6-2-3-3v-40l2-2 31-1 12-4 7-4 8-8 3-9v-10l-5-11-8-7-7-4-17-4Zm48 1h25l5 3 8 10 2 9v16l-4 10-5 5-7 3-26-1v-53Z"/></svg>