<svg xmlns="http://www.w3.org/2000/svg" viewBox="0 0 2289 363"><path fill="currentColor" fill-rule="evenodd" d="m175 15-19-4H11v336h67l1-129h76l12-2 16-5 10-5 9-6 13-12 9-12 8-15 4-11 3-12 2-14v-19l-1-9-3-14-3-9-11-22-6-8-11-11-11-8-12-6ZM79 77h63l8 2 7 4 7 7 5 9 2 7 1 7-1 12-1 4-5 10-9 9-3 2-9 3-66-1Zm1528-67v337h231v-67l-164-1 1-67h145v-67l-146-1 1-67h158l-1-67Zm-362 0v337h115l10-1 18-3 21-6 10-4 19-10 17-12 20-20 13-18 11-21 4-10 5-16 3-14 2-13 1-14-1-27-2-13-4-17-6-18-9-19-6-10-12-16-17-17-13-10-13-8-15-7-14-5-20-5-26-3Zm68 67h41l9 1 17 4 19 9 12 9 12 13 8 12 5 10 3 8 3 11 2 13v23l-2 13-2 8-4 11-6 12-9 13-12 12-13 9-8 4-14 5-17 3-45-1ZM866 10l118 186v151h66V195l118-185-83 1-1 3-17 27-37 64-13 21-2-2-15-25-18-32-34-57Zm-547 0v337h174v-67l-107-1V10Zm387-3-30 68-1 5-106 242-11 23v2l71-1 15-35 2-2 132 1 16 37 71-1-103-233L716 6Zm5 152 2 2 1 4 3 5 5 13 13 28 10 25 4 7v5l-77-1 34-78ZM2089 4l-22 3-16 4-17 6-13 6-17 10-17 13-20 20-10 13-10 16-9 19-5 14-3 11-4 24v35l2 14 4 17 8 22 8 16 6 10 12 16 7 8 16 15 9 7 17 11 16 8 19 7 11 3 24 4h33l15-2 17-4 15-5 18-8 9-5 20-14 6-5 17-17 11-14 6-9 14-28 6-18 4-18 2-18v-22l-2-17-3-15-6-19-5-12-9-17-8-12-12-15-13-13-15-12-12-8-26-13-18-6-18-4-16-2Zm1 72h24l19 4 8 3 14 7 14 10 13 13 11 16 6 12 4 12 3 16v22l-4 20-3 8-7 14-9 13-15 15-16 11-13 6-9 3-14 3-17 1-12-1-14-3-9-3-16-8-10-7-15-14-11-15-8-16-3-9-3-14-1-9v-11l1-10 3-14 4-11 6-12 9-13 6-7 11-10 15-10 8-4 14-5Z"/></svg>