<svg xmlns="http://www.w3.org/2000/svg" width="906" height="312" fill="none" viewBox="0 0 906 312"><path fill="currentColor" d="M358.9 156h11.6v-15.3h14.7c2 0 4-.2 5.8-.5l11.3 15.8h13.5l-14.3-19c8.6-4.1 13.3-12.3 13.3-21 0-13.7-9.9-24.8-28.5-24.8h-27.4zm11.6-25.3v-29.6h16.4c9.2 0 15.7 6.6 15.7 14.9 0 8.1-6.5 14.7-15.8 14.7zm74.139 26.3c6.6 0 13.2-2.1 18.8-5.9l-4.4-8.2c-4 2.8-9.2 4.3-14.2 4.3-7.4 0-13.8-4.1-15.4-12h37.5s.3-2.2.3-4.3c0-13.9-10.6-25.4-23.8-25.4-14.4 0-25.5 11.6-25.5 25.8 0 16.3 12.6 25.7 26.7 25.7m-15.3-30c1.5-7.1 7.1-11.8 13.5-11.8 6.8 0 12.5 4.7 13.6 11.8zm65.629 30c6.7 0 12.6-2.6 16.5-7.2v6.2h11.1v-49.5h-11.1v6.3c-3.9-4.6-9.8-7.3-16.5-7.3-13.6 0-22.9 11.5-22.9 25.8 0 14.2 9.3 25.7 22.9 25.7m2.8-10.7c-8.4 0-14.4-6.3-14.4-15s6-15.1 14.4-15.1c7.9 0 13.7 6.4 13.7 15.1 0 8.8-5.9 15-13.7 15m32.961 9.7h11.1V90.2h-11.1zm19.266 0h11.1v-49.5h-11.1zm5.5-56.7c3.7 0 6.8-3 6.8-6.7s-3.1-6.8-6.8-6.8-6.7 3.1-6.7 6.8 3 6.7 6.7 6.7M587.36 157c5.6 0 9.6-2.2 11.9-3.7l-3.3-8.3s-3.3 2.4-7.2 2.4c-2.8 0-5.3-1.7-5.3-7v-24.8h14.9v-9.1h-14.9v-12l-11.1 2.3v9.7h-7.3v9.1h7.3v24.5c0 11.4 4.9 16.9 15 16.9m21.491 13.7c5.8 0 14.4-1 19.5-12.5l22.6-51.7h-11.2l-10.7 25.9c-1 2.5-3.2 8.3-3.2 8.3s-1.7-4.5-3.2-7.8l-11.9-26.4h-11.4l21.4 44.7-1 2c-2.5 5-5 7.1-10.9 7.1zM358.9 246h11.6v-15.4h15.6c18.7 0 28.6-11 28.6-24.7 0-13.6-9.9-24.7-28.5-24.7h-27.3zm11.6-25.4v-29.4H387c9.6 0 15.6 6.6 15.6 14.7s-6 14.7-15.7 14.7zm50.702 25.4h11.1v-20.2c0-13 7-18.2 17.9-18.2v-12.1c-10.6 0-16 5.8-17.9 10.8v-9.8h-11.1zm57.635 1c14.6 0 26.3-11.4 26.3-25.7 0-14.4-11.7-25.8-26.3-25.8s-26.3 11.4-26.3 25.8c0 14.3 11.7 25.7 26.3 25.7m0-10.7c-8.5 0-15-6.4-15-15 0-8.7 6.5-15.1 15-15.1s15 6.4 15 15.1c0 8.6-6.5 15-15 15m50.851 10.7c5.6 0 9.6-2.2 11.9-3.7l-3.3-8.3s-3.3 2.4-7.2 2.4c-2.8 0-5.3-1.7-5.3-7v-24.8h14.9v-9.1h-14.9v-12l-11.1 2.3v9.7h-7.3v9.1h7.3v24.5c0 11.4 4.9 16.9 15 16.9m40.317 0c14.6 0 26.3-11.4 26.3-25.7 0-14.4-11.7-25.8-26.3-25.8s-26.3 11.4-26.3 25.8c0 14.3 11.7 25.7 26.3 25.7m0-10.7c-8.5 0-15-6.4-15-15 0-8.7 6.5-15.1 15-15.1s15 6.4 15 15.1c0 8.6-6.5 15-15 15m50.851 10.7c5.6 0 9.6-2.2 11.9-3.7l-3.3-8.3s-3.3 2.4-7.2 2.4c-2.8 0-5.3-1.7-5.3-7v-24.8h14.9v-9.1h-14.9v-12l-11.1 2.3v9.7h-7.3v9.1h7.3v24.5c0 11.4 4.9 16.9 15 16.9m21.491 13.7c5.8 0 14.4-1 19.5-12.5l22.6-51.7h-11.2l-10.7 25.9c-1 2.5-3.2 8.3-3.2 8.3s-1.7-4.5-3.2-7.8l-11.9-26.4h-11.4l21.4 44.7-1 2c-2.5 5-5 7.1-10.9 7.1zm45.523-.4h11.1v-20.6c3.9 4.6 9.8 7.3 16.499 7.3 13.6 0 22.901-11.5 22.901-25.8 0-14.2-9.301-25.7-22.901-25.7-6.9 0-13 2.6-17 7.2v-6.2H687.87zm24.8-24c-7.901 0-13.7-6.4-13.7-15.1 0-8.8 5.9-15 13.7-15 8.399 0 14.399 6.3 14.399 15s-6 15.1-14.399 15.1m32.16 9.7h11.1v-49.5h-11.1zm5.5-56.7c3.7 0 6.8-3 6.8-6.7s-3.1-6.8-6.8-6.8-6.7 3.1-6.7 6.8 3 6.7 6.7 6.7m13.766 56.7h11.1v-25.9c0-8.2 5.3-13.9 12.6-13.9 8.3 0 10.1 4.7 10.1 12.8v27h11.1v-28.4c0-13.2-4.4-22.1-17.8-22.1-6.6 0-12.3 2.6-16 8.1v-7.1h-11.1zm74.971 14.7c14.2 0 25.8-8.7 25.8-26v-38.2h-10.6v7.4c-2.6-4.9-9.3-8.4-16.8-8.4-13.7 0-22.7 10.7-22.7 24s9 23.9 22.7 23.9c9 0 14.3-4.5 16.3-8.5v.4c0 10.1-5.2 16.9-15.8 16.9-5.1 0-10.9-1.7-14.8-5.1l-4.3 7c4.6 4.1 11.7 6.6 20.2 6.6m.8-27c-7.8 0-13.8-6-13.8-14.2s6-14.3 13.8-14.3 13.9 6 13.9 13.9c0 8.6-5.9 14.6-13.9 14.6"/><path stroke="currentColor" stroke-width="20" d="M63.148 208.545c.71 9.96 3.184 19.964 7.58 29.582 24.684 54.003 88.523 77.794 142.586 53.137 67.584-30.818 97.361-110.528 66.5-178.032-38.566-84.386-133.841-131.35-218.772-82.37-11.611 6.696-21.783 15.482-29.945 26.107A101.9 101.9 0 0 0 13.48 92.656a101.87 101.87 0 0 0 10.199 77.383 102 102 0 0 0 39.47 38.506Zm0 0c-2.485-34.784 16.516-69.025 50.138-84.36 34.6-15.778 75.457-.551 91.259 34.012 12.637 27.648.444 60.304-27.24 72.924-18.14 8.273-38.966 3.231-51.463-11.02m-62.694-11.556a102.2 102.2 0 0 0 62.272 11.611l.422-.055m0 0a44 44 0 0 1-6.942-10.744c-8.088-17.699-.284-38.59 17.434-46.669 14.174-6.463 31.499-2.35 37.379 13.928 3.92 10.853-.258 22.704-10.705 30.659-10.549 8.033-24.008 11.069-37.166 12.826Z"/></svg>