<svg xmlns="http://www.w3.org/2000/svg" viewBox="0 0 1080 1080"><path fill="currentColor" fill-rule="evenodd" d="M119 502v3l2 3 22 15v2l-36 103v10l4 5 22 15 6 2 3-1 87-81 1 2-15 38-2 9v8l6 9 20 14 10 1 9-6 122-139 1 65-3 40-22-10-7 1-1 2v27l4 9 7 6 22 9h7l30-16 8-8 2-16 1-111-3-12-3-4-20-12-6-2h-10l-5 2-8 6-106 117-1-3 8-31 22-63-1-11-9-9-13-8h-7l-4 4-10 23-81 71-9 5 27-75-1-8-5-5-23-15-11 1-25 14Zm148-82 1 6 11 22 4 5 4 2 215 1v3l-2 3-16 50-5 19-10 28-8 28-2 3-5 19-2 3-4 16v7l4 7 18 13 8 4h7l9-7 116-135 1 3-37 109 1 12 26 18h6l6-4 91-87v5l-23 56v10l5 6 22 14h6l4-2 119-128 1 2-15 28-7 22-3 21v12l3 17 4 9 6 8 15 10 19 4h13l16-3 9-3 21-12 21-21 12-18 7-14 6-16 6-24 2-14-1-24-6-16-9-10-8-3-13 1-25 14-3 3-1 4 4 4 20 13 2 5-1 14-5 22-14 31-13 17-17 14-10 4h-7l-5-2-7-8-2-9 2-16 11-31 11-21 12-19 3-12-4-9-7-7-15-11-7-3h-12l-12 6-96 101-1-3 6-17 8-29 7-18v-9l-6-8-18-12h-8l-3 3-3 7-71 66-17 13 3-12 2-3 17-52v-9l-3-6-11-10-14-8h-8l-4 2-13 13-98 110 1-9 38-116v-10l-3-5-18-11 254-1 2-2v-3l-12-25-3-4-6-4-488 1Z"/></svg>